<?xml version="1.0" standalone="no"?>
<!DOCTYPE svg PUBLIC "-//W3C//DTD SVG 1.1//EN" "http://www.w3.org/Graphics/SVG/1.1/DTD/svg11.dtd" >
<svg xmlns="http://www.w3.org/2000/svg" xmlns:xlink="http://www.w3.org/1999/xlink" version="1.1">
<metadata>
Created by FontForge 20170910 at Fri Jun 17 20:10:13 2005
 By Jimmy Wärting
Copyright (c) Boutros International, 2005. All rights reserved.
</metadata>
<defs>
<font id="GEDinarOne-Light" horiz-adv-x="0" >
  <font-face 
    font-family="GE Dinar One"
    font-weight="300"
    font-stretch="normal"
    units-per-em="1000"
    panose-1="2 10 5 3 2 1 2 2 2 4"
    ascent="800"
    descent="-200"
    bbox="-114 -375 1281 995"
    underline-thickness="50"
    underline-position="-100"
    unicode-range="U+0020-FEFF"
  />
<missing-glyph horiz-adv-x="500" 
d="M63 0h375v750h-375v-750zM125 63v625h250v-625h-250z" />
    <glyph glyph-name="shaddakasraarabic" unicode="&#x650;&#x651;" arabic-form="isolated" 
d="M175 790c9 14 14 32 14 53c0 23 -5 42 -14 57c-3 -23 -6 -39 -7 -50c-9 -19 -17 -27 -26 -24c-15 17 -25 29 -30 38c-7 -22 -12 -40 -15 -55c-5 -13 -13 -19 -25 -19c-17 8 -19 31 -20 48l-6 -2c-7 -18 -8 -39 -4 -63c7 -15 14 -23 22 -25c5 -2 10 -3 14 -3
c8 0 16 5 24 16c6 8 12 17 18 26c23 -8 42 -7 55 3zM191 777l-123 -72c-15 -5 -22 -18 -22 -41c61 38 107 66 138 84c6 16 8 26 7 29z" />
    <glyph glyph-name="shaddakasratanarabic" unicode="&#x64d;&#x651;" arabic-form="isolated" 
d="M211 945l-10 -2c1 -9 -2 -27 -7 -53c-3 -15 -11 -20 -22 -15c-9 4 -15 10 -20 19c-1 1 -4 9 -10 22l-6 -3c0 -17 -5 -38 -14 -61c-5 -15 -14 -23 -25 -23c-3 0 -6 1 -9 3c-17 8 -17 33 -20 53l-6 -5c-6 -36 -6 -61 0 -74c5 -17 19 -25 42 -25c9 3 18 11 26 23
c9 16 15 25 18 28l10 -6c22 -5 38 -1 49 13c10 10 15 25 15 45c0 15 -4 35 -11 61zM213 820l-116 -62c-26 -14 -40 -28 -43 -42l134 65c17 5 25 18 25 39zM217 771l-133 -69c-18 -2 -29 -15 -32 -38l74 32c19 9 38 18 58 26c22 11 33 28 33 49z" />
    <glyph glyph-name="shaddafathaarabic" unicode="&#x64e;&#x651;" arabic-form="isolated" 
d="M191 905l-87 -46c-17 -7 -33 -15 -48 -22c-19 -12 -29 -27 -28 -46l137 72c19 6 28 17 28 34c0 3 -1 5 -2 8zM185 821c0 6 -3 8 -10 6c1 -7 -2 -25 -7 -56c-3 -11 -12 -16 -26 -16c-16 8 -23 28 -28 43l-4 -5c-3 -16 -6 -32 -9 -49c-5 -19 -16 -29 -33 -31
c-16 8 -19 31 -22 50l-8 -8c-4 -32 -3 -55 4 -70c4 -14 18 -21 42 -21c9 3 16 10 22 21c8 17 13 26 16 28c13 -4 23 -6 31 -6c13 0 22 4 28 12c9 15 14 34 14 56c0 18 -3 33 -10 46z" />
    <glyph glyph-name="shaddadammaarabicX" unicode="&#x64f;&#x651;" arabic-form="isolated" 
d="M204 823v28c-9 5 -14 10 -14 16c0 3 3 11 10 25c5 11 5 21 1 30c-5 14 -15 21 -32 21c-15 0 -27 -5 -36 -14c-15 -11 -23 -25 -23 -42c14 -17 26 -29 36 -36c-27 -29 -63 -56 -108 -81c27 -3 51 4 74 21c13 9 32 27 56 54zM197 806c-11 -2 -16 -11 -16 -26v-5
c0 -10 -1 -17 -3 -21c-6 -15 -15 -21 -26 -20c-6 3 -11 9 -14 16c-1 4 -3 11 -5 20c-11 -3 -16 -5 -17 -6l-6 -48c-2 -15 -13 -21 -32 -18c-13 3 -20 17 -20 44l-14 -8c0 -23 3 -39 8 -50c8 -17 21 -24 38 -21c20 5 33 26 46 43c10 -5 17 -8 22 -8c12 0 23 7 33 20
c16 29 18 58 6 88zM172 907c3 -6 1 -17 -4 -33c-21 12 -32 22 -35 29c0 9 4 15 13 19c12 3 21 -2 26 -15z" />
    <glyph glyph-name="lamalefhamzaaboveisolatedarabi" unicode="&#xfedf;&#xfe84;" horiz-adv-x="496" arabic-form="isolated" 
d="M459 167v478l-47 -14v-456c0 -89 -41 -133 -122 -133h-63v553l-47 -16v-537h-110l-21 -42h246c100 0 164 68 164 167zM249 664v29h-87v11c0 28 11 42 32 42c11 0 20 -5 29 -14l18 24c-13 12 -27 18 -42 18c-45 0 -67 -24 -67 -72v-9h-26l-21 -29h164z" />
    <glyph glyph-name="lamalefmaddaabovefinalarabic" unicode="&#xfee0;&#xfe82;" horiz-adv-x="608" arabic-form="final" 
d="M628 0v42h-44c-83 0 -124 43 -124 128v475l-48 -14v-456c0 -89 -41 -133 -123 -133h-62v553l-47 -16v-537h-110l-21 -42h264c55 0 96 25 124 74c29 -49 75 -74 139 -74h52zM324 706l-25 25c-21 -19 -39 -29 -54 -29c-13 0 -31 7 -54 20c-22 13 -42 20 -60 20
c-24 0 -50 -14 -79 -42l26 -24c20 19 38 29 53 29c13 0 31 -7 54 -21c23 -13 43 -20 60 -20c25 0 51 14 79 42z" />
    <glyph glyph-name="shaddadammatanarabic" unicode="&#x64c;&#x651;" arabic-form="isolated" 
d="M233 835l-3 36c-12 7 -18 16 -18 26c0 12 15 43 15 58c0 6 -1 11 -4 16c-5 16 -19 24 -42 24c-33 -16 -49 -45 -49 -86c8 -16 20 -29 36 -40c-25 -23 -44 -35 -58 -36c0 36 -1 57 -3 64c-5 21 -16 29 -33 26c-12 -6 -20 -17 -23 -33c-1 -3 -3 -18 -5 -45
c12 20 19 31 22 32c9 6 16 4 22 -6c5 -7 7 -14 7 -23c0 -10 -8 -28 -23 -55c49 11 87 33 114 66c22 -14 37 -22 45 -24zM233 819l-6 -6l-7 -52c-3 -18 -11 -24 -26 -19c-15 4 -24 25 -32 42c0 -3 -1 -3 -4 0c-6 -31 -15 -54 -26 -68c-11 -7 -21 -6 -28 3c-5 5 -7 21 -7 46
c-4 -4 -7 -6 -8 -6s-2 -13 -5 -38c-2 -16 -1 -28 4 -35c5 -15 19 -22 42 -22c14 3 25 13 32 30c4 1 15 2 34 2c28 0 45 21 45 58c0 -7 -3 15 -8 65zM194 909c-21 23 -31 37 -31 42c0 3 1 7 2 12c3 1 5 1 8 1c8 0 15 -6 21 -19c5 -11 5 -23 0 -36z" />
    <glyph glyph-name="lamalefisolatedarabic" unicode="&#xfedf;&#xfe8e;" horiz-adv-x="496" arabic-form="isolated" 
d="M459 167v478l-47 -14v-456c0 -89 -41 -133 -122 -133h-63v553l-47 -16v-537h-110l-21 -42h246c100 0 164 68 164 167z" />
    <glyph glyph-name="lamaleffinalarabic" unicode="&#xfee0;&#xfe8e;" horiz-adv-x="608" arabic-form="final" 
d="M628 0v42h-44c-83 0 -124 43 -124 128v475l-48 -14v-456c0 -89 -41 -133 -123 -133h-62v553l-47 -16v-537h-110l-21 -42h264c55 0 96 25 124 74c29 -49 75 -74 139 -74h52z" />
    <glyph glyph-name="lamalefhamzaabovefinalarabicX" unicode="&#xfee0;&#xfe84;" horiz-adv-x="608" arabic-form="final" 
d="M628 0v42h-44c-83 0 -124 43 -124 128v475l-48 -14v-456c0 -89 -41 -133 -123 -133h-62v553l-47 -16v-537h-110l-21 -42h264c55 0 96 25 124 74c29 -49 75 -74 139 -74h52zM249 664v29h-87v11c0 28 11 42 32 42c11 0 20 -5 29 -14l18 24c-13 12 -27 18 -42 18
c-45 0 -67 -24 -67 -72v-9h-26l-21 -29h164z" />
    <glyph glyph-name="lamalefhamzabelowisolatedarabi" unicode="&#xfedf;&#xfe88;" horiz-adv-x="496" arabic-form="isolated" 
d="M459 167v478l-47 -14v-456c0 -89 -41 -133 -122 -133h-63v553l-47 -16v-537h-110l-21 -42h246c100 0 164 68 164 167zM236 -193v28h-88v11c0 29 11 43 32 43c11 0 21 -5 30 -15l17 24c-12 12 -26 18 -42 18c-44 0 -66 -23 -66 -70v-11h-26l-21 -28h164z" />
    <glyph glyph-name="lamalefhamzabelowfinalarabicX" unicode="&#xfee0;&#xfe88;" horiz-adv-x="608" arabic-form="final" 
d="M628 0v42h-44c-83 0 -124 43 -124 128v475l-48 -14v-456c0 -89 -41 -133 -123 -133h-62v553l-47 -16v-537h-110l-21 -42h264c55 0 96 25 124 74c29 -49 75 -74 139 -74h52zM236 -193v28h-88v11c0 29 11 43 32 43c11 0 21 -5 30 -15l17 24c-12 12 -26 18 -42 18
c-44 0 -66 -23 -66 -70v-11h-26l-21 -28h164z" />
    <glyph glyph-name="lamalefmaddaaboveisolatedarabi" unicode="&#xfedf;&#xfe82;" horiz-adv-x="496" arabic-form="isolated" 
d="M459 167v478l-47 -14v-456c0 -89 -41 -133 -122 -133h-63v553l-47 -16v-537h-110l-21 -42h246c100 0 164 68 164 167zM324 706l-25 25c-21 -19 -39 -29 -54 -29c-13 0 -31 7 -54 20c-22 13 -42 20 -60 20c-24 0 -50 -14 -79 -42l26 -24c20 19 38 29 53 29
c13 0 31 -7 54 -21c23 -13 43 -20 60 -20c25 0 51 14 79 42z" />
    <glyph glyph-name="alefmaddaabovearabic" unicode="&#x627;&#x653;" horiz-adv-x="146" 
d="M109 0v645l-47 -14v-631h47zM226 726l-25 25c-21 -19 -39 -29 -54 -29c-13 0 -31 7 -54 20c-22 13 -42 20 -60 20c-24 0 -50 -14 -79 -42l26 -24c20 19 38 29 53 29c13 0 31 -7 54 -21c23 -13 43 -20 60 -20c25 0 51 14 79 42z" />
    <glyph glyph-name="alefhamzaabovearabic" unicode="&#x627;&#x654;" horiz-adv-x="146" 
d="M109 0v645l-47 -14v-631h47zM159 685v29h-87v11c0 28 11 42 32 42c11 0 20 -5 29 -14l18 24c-13 12 -27 18 -42 18c-45 0 -67 -24 -67 -72v-9h-26l-21 -29h164z" />
    <glyph glyph-name="wawhamzaabovearabic" unicode="&#x648;&#x654;" horiz-adv-x="429" 
d="M392 228c2 59 -11 108 -40 146c-31 41 -74 62 -131 62c-115 0 -172 -73 -172 -219c0 -145 57 -217 172 -217c47 0 86 16 117 47c2 0 3 -5 3 -16c1 -52 -11 -94 -34 -126c-26 -38 -63 -57 -111 -57c-40 0 -77 8 -111 24l21 -46c28 -13 58 -19 90 -19c63 0 111 22 145 65
c31 39 46 93 46 161zM346 217c0 -117 -42 -176 -125 -176s-125 59 -125 176c0 118 42 177 125 177s125 -59 125 -177zM317 494v38h-159v32c0 53 21 79 64 79c20 0 37 -7 52 -22l27 31c-21 19 -44 29 -71 29c-72 0 -114 -51 -114 -122v-27h-49l-31 -38h281z" />
    <glyph glyph-name="alefhamzabelowarabic" unicode="&#x627;&#x655;" horiz-adv-x="146" 
d="M109 0v645l-47 -14v-631h47zM156 -193v28h-88v11c0 29 11 43 32 43c11 0 21 -5 30 -15l17 24c-12 12 -26 18 -42 18c-44 0 -66 -23 -66 -70v-11h-26l-21 -28h164z" />
    <glyph glyph-name="yehhamzaabovearabic" unicode="&#x64a;&#x654;" horiz-adv-x="596" 
d="M559 395c-34 39 -78 58 -132 58c-104 0 -165 -64 -165 -167v-127h248v-163v-1c0 -92 -67 -139 -202 -141c-152 -1 -212 79 -212 260l-47 -15c9 -99 29 -169 60 -211c39 -54 106 -81 199 -81c161 0 244 61 249 184v211l-249 -1v77c0 89 41 133 124 133
c55 0 93 -21 112 -64zM206 200v33h-164v42c0 44 27 79 70 79c19 0 37 -7 52 -22l26 26c-21 19 -45 29 -72 29c-71 0 -112 -51 -112 -123v-31h-49l-32 -33h281z" />
    <glyph glyph-name="allahisolated" unicode="&#xfedf;&#xfee0;&#xfeea;" horiz-adv-x="1096" arabic-form="isolated" 
d="M1059 167v478l-47 -14v-456c0 -89 -41 -133 -124 -133h-44c-82 0 -123 43 -123 128v426l-47 -15v-406c0 -89 -42 -133 -125 -133h-29c-83 0 -124 44 -124 133v278h-180c-46 0 -82 -13 -109 -40c-39 -39 -58 -100 -58 -183c0 -153 56 -230 167 -230c75 0 124 29 149 86
c27 -57 76 -86 148 -86h42c67 0 114 25 142 74c29 -49 75 -74 140 -74h56c103 0 166 68 166 167zM349 230c0 -125 -42 -188 -126 -188c-85 0 -127 63 -127 188s42 187 127 187h126v-187zM747 807l-10 -4c1 -9 -1 -26 -7 -52c-3 -15 -11 -19 -22 -14c-9 4 -15 10 -20 18
c-1 2 -4 9 -10 22l-6 -2c0 -18 -5 -39 -14 -62c-5 -15 -13 -22 -24 -22c-3 0 -7 1 -10 2c-16 9 -16 35 -20 52l-6 -3c-6 -37 -6 -61 0 -74c5 -17 19 -25 42 -25c10 3 19 11 26 22c10 17 16 26 18 28l10 -6c23 -5 39 0 50 14c9 10 14 25 14 44c0 16 -4 37 -11 62z" />
    <glyph glyph-name="behinitialarabic" unicode="&#x628;" horiz-adv-x="241" arabic-form="initial" 
d="M204 167v286l-47 -16v-262c0 -89 -41 -133 -124 -133h-60v-42h66c101 0 165 68 165 167zM146 -160c0 20 -11 30 -32 30s-31 -10 -31 -30c0 -22 10 -33 31 -33s32 11 32 33z" />
    <glyph glyph-name="tehinitialarabic" unicode="&#x62a;" horiz-adv-x="241" arabic-form="initial" 
d="M209 615c0 21 -10 32 -31 32s-32 -11 -32 -32c0 -22 11 -33 32 -33s31 11 31 33zM96 615c0 21 -11 32 -32 32s-32 -11 -32 -32c0 -22 11 -33 32 -33s32 11 32 33zM204 167v286l-47 -16v-262c0 -89 -41 -133 -124 -133h-60v-42h66c101 0 165 68 165 167z" />
    <glyph glyph-name="thehinitialarabic" unicode="&#x62b;" horiz-adv-x="241" arabic-form="initial" 
d="M152 707c0 21 -10 31 -31 31s-32 -10 -32 -31s11 -32 32 -32s31 11 31 32zM210 615c0 21 -11 32 -32 32s-32 -11 -32 -32c0 -22 11 -33 32 -33s32 11 32 33zM96 615c0 21 -11 32 -32 32s-32 -11 -32 -32c0 -22 11 -33 32 -33s32 11 32 33zM204 167v286l-47 -16v-262
c0 -89 -41 -133 -124 -133h-60v-42h66c101 0 165 68 165 167z" />
    <glyph glyph-name="jeeminitialarabic" unicode="&#x62c;" horiz-adv-x="536" arabic-form="initial" 
d="M499 0v117c0 105 -12 181 -35 230c-34 71 -98 106 -193 106c-65 0 -127 -28 -186 -83l33 -33c49 47 100 71 153 71c77 0 129 -32 155 -96c15 -39 22 -104 22 -195v-75h-468v-42h519zM317 -163c0 21 -11 32 -32 32s-31 -11 -31 -32s10 -31 31 -31s32 10 32 31z" />
    <glyph glyph-name="hahinitialarabic" unicode="&#x62d;" horiz-adv-x="536" arabic-form="initial" 
d="M499 0v117c0 105 -12 181 -35 230c-34 71 -98 106 -193 106c-65 0 -127 -28 -186 -83l33 -33c49 47 100 71 153 71c77 0 129 -32 155 -96c15 -39 22 -104 22 -195v-75h-468v-42h519z" />
    <glyph glyph-name="khahinitialarabic" unicode="&#x62e;" horiz-adv-x="536" arabic-form="initial" 
d="M308 615c0 21 -11 32 -32 32s-32 -11 -32 -32c0 -22 11 -33 32 -33s32 11 32 33zM499 0v117c0 105 -12 181 -35 230c-34 71 -98 106 -193 106c-65 0 -127 -28 -186 -83l33 -33c49 47 100 71 153 71c77 0 129 -32 155 -96c15 -39 22 -104 22 -195v-75h-468v-42h519z" />
    <glyph glyph-name="seeninitialarabic" unicode="&#x633;" horiz-adv-x="808" arabic-form="initial" 
d="M766 167v286l-47 -16v-262c0 -89 -41 -133 -123 -133h-126v362l-47 -15v-347h-243v316l-47 -16v-300h-149v-42h618c103 0 164 64 164 167z" />
    <glyph glyph-name="sheeninitialarabic" unicode="&#x634;" horiz-adv-x="808" arabic-form="initial" 
d="M766 167v286l-47 -16v-262c0 -89 -41 -133 -123 -133h-126v362l-47 -15v-347h-243v316l-47 -16v-300h-149v-42h618c103 0 164 64 164 167zM418 615c0 21 -11 32 -32 32s-32 -11 -32 -32c0 -22 11 -33 32 -33s32 11 32 33zM532 615c0 21 -11 32 -32 32s-32 -11 -32 -32
c0 -22 11 -33 32 -33s32 11 32 33zM474 707c0 21 -10 31 -31 31s-32 -10 -32 -31s11 -32 32 -32s31 11 31 32z" />
    <glyph glyph-name="tahinitialarabic" unicode="&#x637;" horiz-adv-x="766" arabic-form="initial" 
d="M687 0c0 7 1 23 2 50c2 27 3 50 3 68c0 85 -14 153 -43 203c-45 77 -111 115 -199 112c-141 -4 -240 -91 -297 -261v447l-47 -16v-561h-122l-1 -42h704zM642 42l-496 -1c6 70 36 142 90 217c65 91 138 134 221 129c65 -3 114 -30 148 -83c29 -55 43 -118 43 -189
c0 -24 -2 -48 -6 -73z" />
    <glyph glyph-name="zahinitialarabic" unicode="&#x638;" horiz-adv-x="728" arabic-form="initial" 
d="M479 615c0 21 -11 32 -32 32s-32 -11 -32 -32c0 -22 11 -33 32 -33s32 11 32 33zM687 0c0 7 1 23 2 50c2 27 3 50 3 68c0 85 -14 153 -43 203c-45 77 -111 115 -199 112c-141 -4 -240 -91 -297 -261v447l-47 -16v-561h-122l-1 -42h704zM642 42l-496 -1
c6 70 36 142 90 217c65 91 138 134 221 129c65 -3 114 -30 148 -83c29 -55 43 -118 43 -189c0 -24 -2 -48 -6 -73z" />
    <glyph glyph-name="aininitialarabic" unicode="&#x639;" horiz-adv-x="513" arabic-form="initial" 
d="M476 0l-34 42h-269v233c0 77 46 136 119 136c39 0 67 -12 84 -35l35 34c-30 29 -66 43 -107 43c-56 0 -100 -18 -132 -55c-31 -37 -47 -83 -47 -139v-217h-141v-42h492z" />
    <glyph glyph-name="ghaininitialarabic" unicode="&#x63a;" horiz-adv-x="513" arabic-form="initial" 
d="M307 615c0 21 -11 32 -32 32s-32 -11 -32 -32c0 -22 11 -33 32 -33s32 11 32 33zM476 0l-34 42h-269v233c0 77 46 136 119 136c39 0 67 -12 84 -35l35 34c-30 29 -66 43 -107 43c-56 0 -100 -18 -132 -55c-31 -37 -47 -83 -47 -139v-217h-141v-42h492z" />
    <glyph glyph-name="fehinitialarabic" unicode="&#x641;" horiz-adv-x="497" arabic-form="initial" 
d="M316 615c0 20 -11 30 -32 30s-32 -10 -32 -30c0 -22 11 -33 32 -33s32 11 32 33zM460 147v161c0 41 -13 75 -40 103c-31 31 -74 47 -129 47c-115 0 -179 -60 -179 -148c0 -53 9 -90 26 -111c21 -25 59 -37 115 -37h160v-30c0 -71 -32 -90 -127 -90h-298v-42h311
c59 0 100 10 124 29c25 19 37 59 37 118zM413 200h-139c-47 0 -78 7 -93 21s-22 43 -22 87c0 68 52 108 132 108c73 0 122 -45 122 -109v-107z" />
    <glyph glyph-name="qafinitialarabic" unicode="&#x642;" horiz-adv-x="497" arabic-form="initial" 
d="M379 615c0 21 -11 32 -32 32s-32 -11 -32 -32c0 -22 11 -33 32 -33s32 11 32 33zM265 615c0 21 -11 32 -32 32s-31 -11 -31 -32c0 -22 10 -33 31 -33s32 11 32 33zM460 147v161c0 41 -13 75 -39 103c-31 31 -75 47 -130 47c-115 0 -179 -60 -179 -148
c0 -53 9 -90 26 -111c21 -25 59 -37 116 -37h159v-30c0 -71 -32 -90 -125 -90h-300v-42h312c58 0 99 10 123 29c25 19 37 59 37 118zM413 200h-139c-47 0 -77 7 -92 21s-22 43 -22 87c0 68 51 108 131 108c75 0 122 -45 122 -109v-107z" />
    <glyph glyph-name="kafinitialarabic" unicode="&#x643;" horiz-adv-x="563" arabic-form="initial" 
d="M524 0v51c1 22 2 39 2 50c0 109 -24 187 -71 235c-45 44 -105 66 -179 66c-33 0 -65 -5 -98 -15l229 258h-60l-291 -324l33 -33c49 47 111 70 187 70c59 0 105 -17 139 -51c29 -29 48 -71 55 -126c3 -20 4 -66 4 -139h-486v-42h536z" />
    <glyph glyph-name="laminitialarabic" unicode="&#x644;" horiz-adv-x="241" arabic-form="initial" 
d="M204 167v478l-47 -14v-456c0 -89 -41 -133 -124 -133h-60v-42h66c101 0 165 68 165 167z" />
    <glyph glyph-name="meeminitialarabic" unicode="&#x645;" horiz-adv-x="526" arabic-form="initial" 
d="M489 215c0 144 -56 216 -169 216s-169 -72 -169 -216v-20c1 -9 1 -16 1 -20c0 -89 -42 -133 -125 -133h-42v-42h48c29 0 57 6 83 17c32 15 53 36 62 63c29 -53 77 -80 142 -80c113 0 169 72 169 215zM442 215c0 -115 -41 -173 -122 -173c-82 0 -123 58 -123 173
c0 116 41 174 123 174c81 0 122 -58 122 -174z" />
    <glyph glyph-name="nooninitialarabic" unicode="&#x646;" horiz-adv-x="241" arabic-form="initial" 
d="M114 615c0 21 -10 32 -31 32s-32 -11 -32 -32c0 -22 11 -33 32 -33s31 11 31 33zM204 167v286l-47 -16v-262c0 -89 -41 -133 -124 -133h-60v-42h66c101 0 165 68 165 167z" />
    <glyph glyph-name="hehinitialarabic" unicode="&#x647;" horiz-adv-x="558" arabic-form="initial" 
d="M521 0v132c0 104 -12 179 -36 225c-35 64 -99 96 -194 96h-137l-61 -45h187c81 0 136 -27 163 -82c19 -37 28 -102 28 -194v-90h-116c25 27 37 71 37 130c0 115 -45 172 -134 172c-91 0 -136 -57 -136 -172c0 -59 13 -103 38 -130h-172v-42h533zM349 172
c0 -87 -30 -130 -91 -130c-62 0 -93 43 -93 130c0 86 31 129 93 129c61 0 91 -43 91 -129z" />
    <glyph glyph-name="yehinitialarabic" unicode="&#x64a;" horiz-adv-x="241" arabic-form="initial" 
d="M204 167v286l-47 -16v-262c0 -89 -41 -133 -124 -133h-60v-42h66c101 0 165 68 165 167zM180 -160c0 20 -11 30 -32 30s-31 -10 -31 -30c0 -22 10 -33 31 -33s32 11 32 33zM67 -160c0 20 -11 30 -32 30s-31 -10 -31 -30c0 -22 10 -33 31 -33s32 11 32 33z" />
    <glyph glyph-name="yehhamzaabovemedialarabic" unicode="&#x626;" horiz-adv-x="420" arabic-form="medial" 
d="M317 591v38h-159v32c0 54 22 81 65 81c19 0 37 -8 52 -24l26 31c-21 21 -44 31 -71 31c-72 0 -114 -52 -114 -124v-27h-48l-32 -38h281zM432 0v42h-88c-82 0 -123 43 -123 128v283l-47 -15v-263c0 -89 -41 -133 -123 -133h-63v-42h68c67 0 115 25 143 74
c29 -49 75 -74 139 -74h94z" />
    <glyph glyph-name="behmedialarabic" unicode="&#x628;" horiz-adv-x="342" arabic-form="medial" 
d="M364 0v42h-44c-83 0 -124 43 -124 128v283l-47 -15v-263c0 -89 -41 -133 -123 -133h-46v-42h51c67 0 115 25 143 74c29 -49 75 -74 139 -74h51zM210 -160c0 20 -11 30 -32 30s-31 -10 -31 -30c0 -22 10 -33 31 -33s32 11 32 33z" />
    <glyph glyph-name="tehmedialarabic" unicode="&#x62a;" horiz-adv-x="342" arabic-form="medial" 
d="M259 615c0 21 -10 32 -31 32s-32 -11 -32 -32c0 -22 11 -33 32 -33s31 11 31 33zM146 615c0 21 -10 32 -31 32s-32 -11 -32 -32c0 -22 11 -33 32 -33s31 11 31 33zM364 0v42h-44c-83 0 -124 43 -124 128v283l-47 -15v-263c0 -89 -41 -133 -123 -133h-46v-42h51
c67 0 115 25 143 74c29 -49 75 -74 139 -74h51z" />
    <glyph glyph-name="thehmedialarabic" unicode="&#x62b;" horiz-adv-x="342" arabic-form="medial" 
d="M202 707c0 21 -11 31 -32 31s-32 -10 -32 -31s11 -32 32 -32s32 11 32 32zM259 615c0 21 -11 32 -32 32s-31 -11 -31 -32c0 -22 10 -33 31 -33s32 11 32 33zM146 615c0 21 -10 32 -31 32s-32 -11 -32 -32c0 -22 11 -33 32 -33s31 11 31 33zM364 0v42h-44
c-83 0 -124 43 -124 128v283l-47 -15v-263c0 -89 -41 -133 -123 -133h-46v-42h51c67 0 115 25 143 74c29 -49 75 -74 139 -74h51z" />
    <glyph glyph-name="jeemmedialarabic" unicode="&#x62c;" horiz-adv-x="639" arabic-form="medial" 
d="M656 0v42h-155v75c0 105 -12 181 -35 230c-33 71 -97 106 -191 106c-67 0 -129 -28 -187 -83l33 -33c49 47 101 71 154 71c77 0 128 -32 153 -96c16 -39 24 -104 24 -195v-75h-472v-42h676zM320 -163c0 21 -10 32 -31 32s-32 -11 -32 -32s11 -31 32 -31s31 10 31 31z" />
    <glyph glyph-name="hahmedialarabic" unicode="&#x62d;" horiz-adv-x="639" arabic-form="medial" 
d="M656 0v42h-155v75c0 105 -12 181 -35 230c-33 71 -97 106 -191 106c-67 0 -129 -28 -187 -83l33 -33c49 47 101 71 154 71c77 0 128 -32 153 -96c16 -39 24 -104 24 -195v-75h-472v-42h676z" />
    <glyph glyph-name="khahmedialarabic" unicode="&#x62e;" horiz-adv-x="639" arabic-form="medial" 
d="M317 615c0 21 -11 32 -32 32s-31 -11 -31 -32c0 -22 10 -33 31 -33s32 11 32 33zM656 0v42h-155v75c0 105 -12 181 -35 230c-33 71 -97 106 -191 106c-67 0 -129 -28 -187 -83l33 -33c49 47 101 71 154 71c77 0 128 -32 153 -96c16 -39 24 -104 24 -195v-75h-472v-42h676
z" />
    <glyph glyph-name="seenmedialarabic" unicode="&#x633;" horiz-adv-x="892" arabic-form="medial" 
d="M901 0v42h-131v411l-47 -16v-395h-249v362l-47 -15v-347h-247v316l-47 -16v-300h-149v-42h917z" />
    <glyph glyph-name="sheenmedialarabic" unicode="&#x634;" horiz-adv-x="892" arabic-form="medial" 
d="M901 0v42h-131v411l-47 -16v-395h-249v362l-47 -15v-347h-247v316l-47 -16v-300h-149v-42h917zM422 615c0 21 -11 32 -32 32s-32 -11 -32 -32c0 -22 11 -33 32 -33s32 11 32 33zM536 615c0 21 -11 32 -32 32s-32 -11 -32 -32c0 -22 11 -33 32 -33s32 11 32 33zM478 707
c0 21 -10 31 -31 31s-32 -10 -32 -31s11 -32 32 -32s31 11 31 32z" />
    <glyph glyph-name="sadmedialarabic" unicode="&#x635;" horiz-adv-x="812" arabic-form="medial" 
d="M828 0v41h-111c1 31 2 57 2 76c0 86 -14 154 -43 204c-45 77 -111 115 -199 112c-105 -3 -187 -54 -248 -153c-21 -35 -38 -70 -49 -105v183l-47 -16v-300h-149v-42h844zM667 42h-487v43c9 51 35 106 78 166c64 90 137 135 220 135c65 0 116 -28 152 -84
c29 -53 43 -116 43 -187c0 -24 -2 -48 -6 -73z" />
    <glyph glyph-name="dadmedialarabic" unicode="&#x636;" horiz-adv-x="812" arabic-form="medial" 
d="M828 0v41h-111c1 31 2 57 2 76c0 86 -14 154 -43 204c-45 77 -111 115 -199 112c-105 -3 -187 -54 -248 -153c-21 -35 -38 -70 -49 -105v183l-47 -16v-300h-149v-42h844zM667 42h-487v43c9 51 35 106 78 166c64 90 137 135 220 135c65 0 116 -28 152 -84
c29 -53 43 -116 43 -187c0 -24 -2 -48 -6 -73zM515 615c0 21 -10 32 -30 32c-22 0 -33 -11 -33 -32c0 -22 11 -33 33 -33c20 0 30 11 30 33z" />
    <glyph glyph-name="tahmedialarabic" unicode="&#x637;" horiz-adv-x="766" arabic-form="medial" 
d="M775 0v41h-85c1 33 2 58 2 77c0 85 -14 153 -43 203c-45 77 -111 115 -199 112c-141 -4 -240 -91 -297 -261v447l-47 -16v-561h-122l-1 -42h792zM642 42l-496 -1c6 70 36 142 90 217c65 91 138 134 221 129c65 -3 114 -30 148 -83c29 -55 43 -118 43 -189
c0 -24 -2 -48 -6 -73z" />
    <glyph glyph-name="zahmedialarabic" unicode="&#x638;" horiz-adv-x="761" arabic-form="medial" 
d="M450 615c0 21 -11 32 -32 32s-32 -11 -32 -32c0 -22 11 -33 32 -33s32 11 32 33zM775 0v41h-85c1 33 2 58 2 77c0 85 -14 153 -43 203c-45 77 -111 115 -199 112c-141 -4 -240 -91 -297 -261v447l-47 -16v-561h-122l-1 -42h792zM642 42l-496 -1c6 70 36 142 90 217
c65 91 138 134 221 129c65 -3 114 -30 148 -83c29 -55 43 -118 43 -189c0 -24 -2 -48 -6 -73z" />
    <glyph glyph-name="ainmedialarabic" unicode="&#x639;" horiz-adv-x="534" arabic-form="medial" 
d="M543 0v42h-370v233c0 77 46 136 119 136c39 0 67 -12 84 -35l35 34c-30 29 -66 43 -107 43c-56 0 -100 -18 -132 -55c-31 -37 -47 -83 -47 -139v-217h-141v-42h559z" />
    <glyph glyph-name="ghainmedialarabic" unicode="&#x63a;" horiz-adv-x="534" arabic-form="medial" 
d="M332 615c0 20 -11 30 -32 30s-31 -10 -31 -30c0 -22 10 -33 31 -33s32 11 32 33zM543 0v42h-370v233c0 77 46 136 119 136c39 0 67 -12 84 -35l35 34c-30 29 -66 43 -107 43c-56 0 -100 -18 -132 -55c-31 -37 -47 -83 -47 -139v-217h-141v-42h559z" />
    <glyph glyph-name="fehmedialarabic" unicode="&#x641;" horiz-adv-x="469" arabic-form="medial" 
d="M257 615c0 20 -10 30 -31 30s-32 -10 -32 -30c0 -22 11 -33 32 -33s31 11 31 33zM473 0v42c-98 -3 -151 0 -160 9c35 19 62 49 82 88c19 37 28 77 28 119c0 53 -14 98 -43 133c-34 39 -81 60 -141 62c-56 1 -100 -12 -133 -41c-29 -26 -46 -62 -49 -107
c-7 -104 42 -189 148 -254c-11 -9 -83 -12 -215 -9v-42h184c32 0 61 6 86 19c37 -13 66 -19 87 -19h126zM262 64c-52 19 -94 52 -125 98c-27 40 -40 81 -40 123c0 81 55 134 135 130c49 -3 87 -21 114 -53c23 -29 34 -66 34 -109c0 -41 -11 -80 -32 -116s-50 -60 -86 -73z
" />
    <glyph glyph-name="qafmedialarabic" unicode="&#x642;" horiz-adv-x="469" arabic-form="medial" 
d="M322 615c0 20 -11 30 -32 30s-31 -10 -31 -30c0 -22 10 -33 31 -33s32 11 32 33zM209 615c0 20 -11 30 -33 30c-20 0 -30 -10 -30 -30c0 -22 10 -33 30 -33c22 0 33 11 33 33zM473 0v42c-98 -3 -151 0 -160 9c35 19 62 49 82 88c19 37 29 77 29 119c0 53 -15 98 -44 133
c-34 39 -81 60 -141 62c-56 1 -100 -12 -133 -41c-29 -26 -46 -62 -49 -107c-7 -104 42 -189 148 -254c-11 -9 -83 -12 -215 -9v-42h184c32 0 61 6 86 19c37 -13 66 -19 87 -19h126zM262 64c-52 19 -94 52 -125 98c-27 40 -40 81 -40 123c0 81 55 134 135 130
c49 -3 87 -21 114 -53c23 -29 34 -66 34 -109c0 -41 -11 -80 -32 -116s-50 -60 -86 -73z" />
    <glyph glyph-name="kafmedialarabic" unicode="&#x643;" horiz-adv-x="636" arabic-form="medial" 
d="M659 0v42h-135c2 73 1 125 -4 157c-9 57 -31 102 -65 137c-45 44 -105 66 -179 66c-37 0 -72 -6 -107 -18l238 261h-60l-291 -324l33 -33c49 47 111 70 187 70c59 0 105 -17 139 -51c29 -29 48 -71 55 -126c3 -20 4 -66 4 -139h-486v-42h671z" />
    <glyph glyph-name="lammedialarabic" unicode="&#x644;" horiz-adv-x="342" arabic-form="medial" 
d="M364 0v42h-44c-83 0 -124 43 -124 128v475l-47 -14v-456c0 -89 -41 -133 -123 -133h-46v-42h51c67 0 115 25 143 74c29 -49 75 -74 139 -74h51z" />
    <glyph glyph-name="meemmedialarabic" unicode="&#x645;" horiz-adv-x="668" arabic-form="medial" 
d="M686 0v42h-49c-84 -1 -126 44 -126 133h-1c-7 112 -70 184 -179 184c-60 0 -106 -20 -137 -60c-28 -35 -42 -84 -43 -147c-8 -73 -49 -110 -123 -110h-40v-42h47c55 0 98 18 127 53c23 -81 79 -122 169 -122c88 0 155 50 172 134c33 -43 80 -65 140 -65h43zM462 144
c0 -114 -44 -171 -131 -171s-130 57 -130 171c0 115 43 172 130 172s131 -57 131 -172z" />
    <glyph glyph-name="noonmedialarabic" unicode="&#x646;" horiz-adv-x="342" arabic-form="medial" 
d="M201 615c0 21 -11 32 -32 32s-32 -11 -32 -32c0 -22 11 -33 32 -33s32 11 32 33zM364 0v42h-44c-83 0 -124 43 -124 128v283l-47 -15v-263c0 -89 -41 -133 -123 -133h-46v-42h51c67 0 115 25 143 74c29 -49 75 -74 139 -74h51z" />
    <glyph glyph-name="hehmedialarabic" unicode="&#x647;" horiz-adv-x="636" arabic-form="medial" 
d="M665 0v41h-128v76c0 83 -3 139 -8 167c-7 39 -25 73 -54 101c-45 45 -100 68 -165 68s-121 -23 -166 -68c-40 -40 -60 -111 -60 -213c0 -59 12 -103 37 -130h-159v-42h703zM486 42h-169c25 29 37 73 37 130c0 115 -45 172 -134 172c-20 0 -38 -4 -55 -11
c33 50 82 75 145 75c50 0 92 -17 126 -51c22 -23 36 -51 43 -84c5 -28 7 -80 7 -156v-75zM311 172c0 -87 -30 -130 -91 -130c-26 0 -48 9 -66 27s-27 52 -27 103c0 86 31 129 93 129c61 0 91 -43 91 -129z" />
    <glyph glyph-name="yehmedialarabic" unicode="&#x64a;" horiz-adv-x="342" arabic-form="medial" 
d="M364 0v42h-44c-83 0 -124 43 -124 128v283l-47 -15v-263c0 -89 -41 -133 -123 -133h-46v-42h51c67 0 115 25 143 74c29 -49 75 -74 139 -74h51zM265 -160c0 20 -10 30 -31 30s-32 -10 -32 -30c0 -22 11 -33 32 -33s31 11 31 33zM152 -160c0 20 -10 30 -31 30
s-32 -10 -32 -30c0 -22 11 -33 32 -33s31 11 31 33z" />
    <glyph glyph-name="alefmaddaabovefinalarabic" unicode="&#x622;" horiz-adv-x="262" arabic-form="final" 
d="M274 0v42h-96c-46 0 -69 25 -69 75v530l-47 -16v-515c0 -77 36 -116 107 -116h105zM226 726l-25 25c-21 -19 -39 -29 -54 -29c-13 0 -31 7 -54 20c-22 13 -42 20 -60 20c-24 0 -50 -14 -79 -42l26 -24c20 19 38 29 53 29c13 0 31 -7 54 -21c23 -13 43 -20 60 -20
c25 0 51 14 79 42z" />
    <glyph glyph-name="alefhamzaabovefinalarabic" unicode="&#x623;" horiz-adv-x="262" arabic-form="final" 
d="M274 0v42h-96c-46 0 -69 25 -69 75v530l-47 -16v-515c0 -77 36 -116 107 -116h105zM159 685v29h-87v11c0 28 11 42 32 42c11 0 20 -5 29 -14l18 24c-13 12 -27 18 -42 18c-45 0 -67 -24 -67 -72v-9h-26l-21 -29h164z" />
    <glyph glyph-name="wawhamzaabovefinalarabic" unicode="&#x624;" horiz-adv-x="497" arabic-form="final" 
d="M510 0v42h-142c2 47 3 102 3 163c0 147 -53 221 -160 221c-59 0 -103 -22 -132 -66c-26 -39 -39 -90 -39 -155c0 -59 14 -106 43 -143c32 -40 76 -61 132 -62h103c-4 -42 -17 -76 -39 -102c-24 -29 -57 -43 -99 -43c-41 0 -76 7 -106 22l19 -44c29 -12 59 -18 88 -18
c55 0 98 18 130 53c31 32 49 76 54 132h145zM327 205c-1 -39 -1 -94 -2 -163h-110c-43 0 -76 16 -99 49c-21 30 -31 68 -31 114c0 121 42 181 126 181c79 0 117 -60 116 -181zM317 494v38h-159v32c0 53 21 79 64 79c20 0 37 -7 52 -22l27 31c-21 19 -44 29 -71 29
c-72 0 -114 -51 -114 -122v-27h-49l-31 -38h281z" />
    <glyph glyph-name="alefhamzabelowfinalarabic" unicode="&#x625;" horiz-adv-x="262" arabic-form="final" 
d="M274 0v42h-96c-46 0 -69 25 -69 75v530l-47 -16v-515c0 -77 36 -116 107 -116h105zM166 -193v28h-88v11c0 29 11 43 32 43c11 0 21 -5 30 -15l17 24c-12 12 -26 18 -42 18c-44 0 -66 -23 -66 -70v-11h-26l-21 -28h164z" />
    <glyph glyph-name="yehhamzaabovefinalarabic" unicode="&#x626;" horiz-adv-x="557" arabic-form="final" 
d="M315 358v33h-164v42c0 44 27 79 70 79c19 0 36 -8 52 -23l26 27c-21 19 -45 29 -72 29c-71 0 -112 -52 -112 -123v-31h-50l-32 -33h282zM558 -9h-1v51h-46c-56 0 -93 25 -112 74l-18 -39c11 -55 54 -80 130 -77c-1 -95 -68 -144 -201 -146c-67 -1 -117 21 -150 65
c-29 39 -44 92 -44 159c0 63 12 130 37 201l-44 -30c-25 -67 -37 -130 -37 -190c0 -75 19 -134 56 -177c41 -50 102 -75 182 -75c161 0 244 61 248 184z" />
    <glyph glyph-name="aleffinalarabic" unicode="&#x627;" horiz-adv-x="262" arabic-form="final" 
d="M274 0v42h-96c-46 0 -69 25 -69 75v530l-47 -16v-515c0 -77 36 -116 107 -116h105z" />
    <glyph glyph-name="behfinalarabic" unicode="&#x628;" horiz-adv-x="880" arabic-form="final" 
d="M897 0v42h-47c-82 0 -123 43 -123 128v283l-46 -15v-263c0 -89 -41 -133 -123 -133h-338c-83 0 -124 44 -124 133v188l-47 -59v-137c0 -103 62 -167 157 -167h357c67 0 114 25 142 74c29 -49 75 -74 139 -74h53zM415 -160c0 20 -10 30 -31 30s-32 -10 -32 -30
c0 -22 11 -33 32 -33s31 11 31 33z" />
    <glyph glyph-name="tehmarbutafinalarabic" unicode="&#x629;" horiz-adv-x="540" arabic-form="final" 
d="M333 615c0 20 -11 30 -32 30s-31 -10 -31 -30c0 -22 10 -33 31 -33s32 11 32 33zM220 615c0 20 -11 30 -32 30s-31 -10 -31 -30c0 -22 10 -33 31 -33s32 11 32 33zM558 0l-1 42h-37c-83 0 -124 44 -124 133v278h-180c-46 0 -82 -13 -109 -40c-39 -39 -58 -100 -58 -183
c0 -153 56 -230 167 -230c75 0 124 29 149 86c27 -57 76 -86 148 -86h45zM349 230c0 -125 -42 -188 -126 -188c-85 0 -127 63 -127 188s42 187 127 187h126v-187z" />
    <glyph glyph-name="tehfinalarabic" unicode="&#x62a;" horiz-adv-x="880" arabic-form="final" 
d="M481 454c0 21 -11 32 -32 32s-31 -11 -31 -32s10 -31 31 -31s32 10 32 31zM368 454c0 21 -10 32 -31 32s-32 -11 -32 -32s11 -31 32 -31s31 10 31 31zM897 0v42h-47c-82 0 -123 43 -123 128v283l-46 -15v-263c0 -89 -41 -133 -123 -133h-338c-83 0 -124 44 -124 133v188
l-47 -59v-137c0 -103 62 -167 157 -167h357c67 0 114 25 142 74c29 -49 75 -74 139 -74h53z" />
    <glyph glyph-name="thehfinalarabic" unicode="&#x62b;" horiz-adv-x="880" arabic-form="final" 
d="M424 502c0 21 -11 32 -32 32c-20 0 -30 -11 -30 -32s10 -31 30 -31c21 0 32 10 32 31zM481 410c0 21 -11 32 -32 32s-31 -11 -31 -32s10 -31 31 -31s32 10 32 31zM368 410c0 21 -10 32 -31 32s-32 -11 -32 -32s11 -31 32 -31s31 10 31 31zM897 0v42h-47
c-82 0 -123 43 -123 128v283l-46 -15v-263c0 -89 -41 -133 -123 -133h-338c-83 0 -124 44 -124 133v188l-47 -59v-137c0 -103 62 -167 157 -167h357c67 0 114 25 142 74c29 -49 75 -74 139 -74h53z" />
    <glyph glyph-name="jeemfinalarabic" unicode="&#x62c;" horiz-adv-x="687" arabic-form="final" 
d="M703 0v42h-22c-107 0 -173 67 -196 202c-25 139 -100 209 -225 209c-65 0 -127 -28 -186 -83l33 -33c49 47 100 71 153 71c80 0 148 -48 167 -124h-144c-70 0 -127 -23 -170 -68s-64 -103 -64 -174c0 -67 22 -123 67 -168s100 -67 167 -67c48 0 92 13 133 38v45
c-34 -27 -78 -41 -133 -41s-99 18 -133 55c-33 36 -50 82 -50 138c0 57 16 105 49 143s78 57 134 57l156 1c12 -70 35 -126 69 -169c41 -49 96 -74 163 -74h32zM320 70c0 21 -10 32 -31 32s-32 -11 -32 -32s11 -32 32 -32s31 11 31 32z" />
    <glyph glyph-name="hahfinalarabic" unicode="&#x62d;" horiz-adv-x="687" arabic-form="final" 
d="M703 0v42h-22c-107 0 -173 67 -196 202c-25 139 -100 209 -225 209c-65 0 -127 -28 -186 -83l33 -33c49 47 100 71 153 71c80 0 148 -48 167 -124h-144c-70 0 -127 -23 -170 -68s-64 -103 -64 -174c0 -67 22 -123 67 -168s100 -67 167 -67c48 0 92 13 133 38v45
c-34 -27 -78 -41 -133 -41s-99 18 -133 55c-33 36 -50 82 -50 138c0 57 16 105 49 143s78 57 134 57l156 1c12 -70 35 -126 69 -169c41 -49 96 -74 163 -74h32z" />
    <glyph glyph-name="khahfinalarabic" unicode="&#x62e;" horiz-adv-x="687" arabic-form="final" 
d="M290 615c0 21 -10 32 -31 32s-32 -11 -32 -32c0 -22 11 -33 32 -33s31 11 31 33zM703 0v42h-22c-107 0 -173 67 -196 202c-25 139 -100 209 -225 209c-65 0 -127 -28 -186 -83l33 -33c49 47 100 71 153 71c80 0 148 -48 167 -124h-144c-70 0 -127 -23 -170 -68
s-64 -103 -64 -174c0 -67 22 -123 67 -168s100 -67 167 -67c48 0 92 13 133 38v45c-34 -27 -78 -41 -133 -41s-99 18 -133 55c-33 36 -50 82 -50 138c0 57 16 105 49 143s78 57 134 57l156 1c12 -70 35 -126 69 -169c41 -49 96 -74 163 -74h32z" />
    <glyph glyph-name="dalfinalarabic" unicode="&#x62f;" horiz-adv-x="515" arabic-form="final" 
d="M533 0v42h-142v212c0 104 -68 168 -171 168c-51 0 -93 -19 -126 -58v-78c25 63 67 94 126 94c82 0 123 -44 123 -133v-205h-266l-28 -42h484z" />
    <glyph glyph-name="thalfinalarabic" unicode="&#x630;" horiz-adv-x="515" arabic-form="final" 
d="M251 615c0 21 -10 32 -31 32s-32 -11 -32 -32c0 -22 11 -33 32 -33s31 11 31 33zM533 0v42h-142v212c0 104 -68 168 -171 168c-51 0 -93 -19 -126 -58v-78c25 63 67 94 126 94c82 0 123 -44 123 -133v-205h-266l-28 -42h484z" />
    <glyph glyph-name="rehfinalarabic" unicode="&#x631;" horiz-adv-x="415" arabic-form="final" 
d="M427 0v42h-143v411l-47 -15v-407c0 -52 -12 -94 -35 -126c-25 -38 -62 -57 -111 -57c-39 0 -76 8 -110 24l20 -46c28 -13 58 -19 90 -19c58 0 104 18 137 54c31 33 50 80 55 139h144z" />
    <glyph glyph-name="zainfinalarabic" unicode="&#x632;" horiz-adv-x="415" arabic-form="final" 
d="M291 615c0 21 -10 32 -31 32s-32 -11 -32 -32c0 -22 11 -33 32 -33s31 11 31 33zM427 0v42h-143v411l-47 -15v-407c0 -52 -12 -94 -35 -126c-25 -38 -62 -57 -111 -57c-39 0 -76 8 -110 24l20 -46c28 -13 58 -19 90 -19c58 0 104 18 137 54c31 33 50 80 55 139h144z" />
    <glyph glyph-name="seenfinalarabic" unicode="&#x633;" horiz-adv-x="1264" arabic-form="final" 
d="M1281 0v42h-131v411l-47 -16v-395h-249v362l-47 -15v-347h-249v315l-47 -15v-343c0 -61 -20 -103 -59 -124c-27 -15 -73 -22 -137 -22c-157 0 -219 80 -219 261v70l-47 -15c-1 -35 0 -59 2 -73c7 -99 28 -170 63 -213c40 -51 106 -76 199 -76c168 0 245 57 245 193h723z
" />
    <glyph glyph-name="sheenfinalarabic" unicode="&#x634;" horiz-adv-x="1264" arabic-form="final" 
d="M1281 0v42h-131v411l-47 -16v-395h-249v362l-47 -15v-347h-249v315l-47 -15v-343c0 -61 -20 -103 -59 -124c-27 -15 -73 -22 -137 -22c-157 0 -219 80 -219 261v70l-47 -15c-1 -35 0 -59 2 -73c7 -99 28 -170 63 -213c40 -51 106 -76 199 -76c168 0 245 57 245 193h723z
M802 615c0 21 -11 32 -32 32s-32 -11 -32 -32c0 -22 11 -33 32 -33s32 11 32 33zM916 615c0 21 -11 32 -32 32s-32 -11 -32 -32c0 -22 11 -33 32 -33s32 11 32 33zM858 707c0 21 -10 31 -31 31s-32 -10 -32 -31s11 -32 32 -32s31 11 31 32z" />
    <glyph glyph-name="sadfinalarabic" unicode="&#x635;" horiz-adv-x="1196" arabic-form="final" 
d="M1207 0v41h-111c1 31 2 57 2 76c0 86 -14 154 -43 204c-45 77 -111 115 -199 112c-105 -3 -187 -54 -248 -153c-22 -35 -39 -71 -50 -108v185l-47 -15v-343c0 -61 -20 -103 -59 -124c-27 -15 -73 -22 -137 -22c-157 0 -219 80 -219 261v70l-47 -15c-1 -35 0 -59 2 -73
c7 -99 28 -170 63 -213c40 -51 106 -76 199 -76c168 0 245 57 245 193h649zM1046 42h-488v38c9 52 35 109 79 171c64 90 137 135 220 135c65 0 116 -28 152 -84c29 -53 43 -116 43 -187c0 -24 -2 -48 -6 -73z" />
    <glyph glyph-name="dadfinalarabic" unicode="&#x636;" horiz-adv-x="1196" arabic-form="final" 
d="M1207 0v41h-111c1 31 2 57 2 76c0 86 -14 154 -43 204c-45 77 -111 115 -199 112c-105 -3 -187 -54 -248 -153c-22 -35 -39 -71 -50 -108v185l-47 -15v-343c0 -61 -20 -103 -59 -124c-27 -15 -73 -22 -137 -22c-157 0 -219 80 -219 261v70l-47 -15c-1 -35 0 -59 2 -73
c7 -99 28 -170 63 -213c40 -51 106 -76 199 -76c168 0 245 57 245 193h649zM1046 42h-488v38c9 52 35 109 79 171c64 90 137 135 220 135c65 0 116 -28 152 -84c29 -53 43 -116 43 -187c0 -24 -2 -48 -6 -73zM894 615c0 21 -10 32 -30 32c-22 0 -33 -11 -33 -32
c0 -22 11 -33 33 -33c20 0 30 11 30 33z" />
    <glyph glyph-name="tahfinalarabic" unicode="&#x637;" horiz-adv-x="766" arabic-form="final" 
d="M803 0v42h-76c1 32 2 57 2 76c0 85 -14 153 -43 203c-45 77 -111 115 -199 112c-141 -4 -240 -91 -297 -261v447l-47 -16v-561h-73l-21 -42h754zM679 42l-496 -1c7 70 37 142 90 217c65 91 138 134 221 129c65 -3 114 -30 148 -83c29 -55 43 -118 43 -189
c0 -24 -2 -48 -6 -73z" />
    <glyph glyph-name="zahfinalarabic" unicode="&#x638;" horiz-adv-x="795" arabic-form="final" 
d="M484 615c0 21 -10 32 -31 32s-32 -11 -32 -32c0 -22 11 -33 32 -33s31 11 31 33zM803 0v42h-76c1 32 2 57 2 76c0 85 -14 153 -43 203c-45 77 -111 115 -199 112c-141 -4 -240 -91 -297 -261v447l-47 -16v-561h-73l-21 -42h754zM679 42l-496 -1c7 70 37 142 90 217
c65 91 138 134 221 129c65 -3 114 -30 148 -83c29 -55 43 -118 43 -189c0 -24 -2 -48 -6 -73z" />
    <glyph glyph-name="ainfinalarabic" unicode="&#x639;" horiz-adv-x="495" arabic-form="final" 
d="M515 0v42h-95c-47 0 -70 25 -70 75v125h94l-12 41h-82v1h-46v-1h-68v34c0 55 31 95 84 95c26 0 46 -9 61 -28l34 33c-26 24 -55 36 -88 36c-85 0 -136 -63 -136 -148v-38c-88 -33 -142 -118 -142 -225c0 -67 22 -123 67 -168s100 -67 167 -67c48 0 92 13 133 38v45
c-34 -27 -78 -41 -133 -41s-99 18 -133 55c-33 36 -50 82 -50 138c0 57 16 105 49 143s78 57 134 57h21v-126c0 -77 36 -116 107 -116h104z" />
    <glyph glyph-name="ghainfinalarabic" unicode="&#x63a;" horiz-adv-x="495" arabic-form="final" 
d="M355 615c0 20 -10 30 -30 30c-22 0 -33 -10 -33 -30c0 -22 11 -33 33 -33c20 0 30 11 30 33zM515 0v42h-95c-47 0 -70 25 -70 75v125h94l-12 41h-82v1h-46v-1h-68v34c0 55 31 95 84 95c26 0 46 -9 61 -28l34 33c-26 24 -55 36 -88 36c-85 0 -136 -63 -136 -148v-38
c-88 -33 -142 -118 -142 -225c0 -67 22 -123 67 -168s100 -67 167 -67c48 0 92 13 133 38v45c-34 -27 -78 -41 -133 -41s-99 18 -133 55c-33 36 -50 82 -50 138c0 57 16 105 49 143s78 57 134 57h21v-126c0 -77 36 -116 107 -116h104z" />
    <glyph glyph-name="fehfinalarabic" unicode="&#x641;" horiz-adv-x="779" arabic-form="final" 
d="M592 615c0 20 -11 30 -32 30s-31 -10 -31 -30c0 -22 10 -33 31 -33s32 11 32 33zM786 0v42c-91 -3 -140 0 -149 9c35 19 62 49 82 88c19 37 29 77 29 119c0 53 -15 98 -45 133c-33 39 -79 60 -140 62c-112 3 -176 -57 -183 -148c-7 -104 42 -189 148 -254
c-7 -5 -35 -9 -84 -10l-224 1c-83 0 -124 44 -124 133v188l-47 -59v-137c0 -104 63 -167 166 -167h282c32 0 61 6 87 19c37 -13 65 -19 86 -19h116zM585 69c-45 19 -83 49 -114 90c-30 42 -45 83 -45 124c0 40 14 72 42 95c25 21 59 31 101 29c43 -1 77 -17 101 -48
c21 -28 32 -63 32 -104s-10 -78 -29 -112c-23 -37 -52 -61 -88 -74z" />
    <glyph glyph-name="qaffinalarabic" unicode="&#x642;" horiz-adv-x="679" arabic-form="final" 
d="M474 615c0 20 -10 30 -31 30s-32 -10 -32 -30c0 -22 11 -33 32 -33s31 11 31 33zM362 615c0 20 -11 30 -33 30c-21 0 -32 -10 -32 -30c0 -22 11 -33 32 -33c22 0 33 11 33 33zM702 0v42h-145v181c0 65 -12 118 -36 157c-30 49 -75 73 -136 73s-106 -24 -137 -73
c-25 -39 -37 -92 -37 -157c0 -89 19 -149 57 -182c31 -27 83 -41 155 -41h88c0 -99 -66 -148 -198 -147c-79 1 -135 22 -169 64c-32 40 -48 106 -48 197l-47 -17c7 -101 27 -172 60 -214c39 -51 107 -76 203 -76c163 0 245 64 245 193h145zM511 41h-93
c-65 0 -109 16 -132 49c-19 25 -28 70 -28 133c0 125 42 188 127 188c84 0 126 -63 126 -188v-182z" />
    <glyph glyph-name="kaffinalarabic" unicode="&#x643;" horiz-adv-x="880" arabic-form="final" 
d="M897 0v42h-47c-82 0 -123 43 -123 128v475l-46 -14v-456c0 -89 -41 -133 -123 -133h-338c-83 0 -124 44 -124 133v188l-47 -59v-137c0 -103 62 -167 157 -167h357c67 0 114 25 142 74c29 -49 75 -74 139 -74h53zM518 301v32h-164v43c0 45 26 79 69 79c20 0 37 -8 52 -23
l27 27c-21 20 -44 30 -71 30c-71 0 -114 -53 -114 -124v-32h-49l-31 -32h281z" />
    <glyph glyph-name="lamfinalarabic" unicode="&#x644;" horiz-adv-x="708" arabic-form="final" 
d="M727 0v42h-170v603l-47 -14v-632c0 -61 -20 -103 -60 -124c-27 -15 -72 -22 -137 -22c-155 0 -218 80 -218 261l-46 -17c7 -99 28 -170 63 -213c41 -51 108 -77 200 -77c168 0 245 57 245 193h170z" />
    <glyph glyph-name="meemfinalarabic" unicode="&#x645;" horiz-adv-x="805" arabic-form="final" 
d="M823 0v42h-49c-58 0 -95 21 -111 63c-9 21 -13 65 -13 132c0 144 -56 216 -169 216h-238c-66 0 -114 -13 -143 -38c-34 -31 -51 -82 -51 -155v-453l47 17v436c0 59 14 98 42 119c24 18 66 27 125 27h101c-35 -35 -53 -91 -53 -169c0 -144 57 -216 170 -216
c62 0 107 24 136 73c27 -63 77 -94 149 -94h57zM603 237c0 -115 -41 -173 -122 -173c-82 0 -123 58 -123 173s41 173 123 173c81 0 122 -58 122 -173z" />
    <glyph glyph-name="noonfinalarabic" unicode="&#x646;" horiz-adv-x="710" arabic-form="final" 
d="M333 301c0 21 -10 32 -31 32s-32 -11 -32 -32s11 -32 32 -32s31 11 31 32zM728 0v42h-170v315l-47 -15v-343c0 -61 -20 -103 -59 -124c-27 -15 -73 -22 -137 -22c-155 0 -219 80 -219 261v70l-47 -15c-1 -35 0 -59 2 -73c7 -99 28 -170 63 -213c40 -51 106 -76 199 -76
c168 0 244 57 245 193h170z" />
    <glyph glyph-name="hehfinalarabic" unicode="&#x647;" horiz-adv-x="540" arabic-form="final" 
d="M558 0l-1 42h-37c-83 0 -124 44 -124 133v278h-180c-46 0 -82 -13 -109 -40c-39 -39 -58 -100 -58 -183c0 -153 56 -230 167 -230c75 0 124 29 149 86c27 -57 76 -86 148 -86h45zM349 230c0 -125 -42 -188 -126 -188c-85 0 -127 63 -127 188s42 187 127 187h126v-187z
" />
    <glyph glyph-name="alefmaksurafinalarabic" unicode="&#x649;" horiz-adv-x="557" arabic-form="final" 
d="M558 -9h-1v51h-46c-56 0 -93 25 -112 74l-18 -39c11 -55 54 -80 130 -77c-1 -95 -68 -144 -201 -146c-67 -1 -117 21 -150 65c-29 39 -44 92 -44 159c0 63 12 130 37 201l-44 -30c-25 -67 -37 -130 -37 -190c0 -75 19 -134 56 -177c41 -50 102 -75 182 -75
c161 0 244 61 248 184z" />
    <glyph glyph-name="yehfinalarabic" unicode="&#x64a;" horiz-adv-x="557" arabic-form="final" 
d="M558 -9h-1v51h-46c-56 0 -93 25 -112 74l-18 -39c11 -55 54 -80 130 -77c-1 -95 -68 -144 -201 -146c-67 -1 -117 21 -150 65c-29 39 -44 92 -44 159c0 63 12 130 37 201l-44 -30c-25 -67 -37 -130 -37 -190c0 -75 19 -134 56 -177c41 -50 102 -75 182 -75
c161 0 244 61 248 184zM402 -317c0 21 -11 32 -32 32s-31 -11 -31 -32s10 -31 31 -31s32 10 32 31zM289 -317c0 21 -11 32 -32 32s-31 -11 -31 -32s10 -31 31 -31s32 10 32 31z" />
    <glyph glyph-name="yehhamzaaboveinitialarabic" unicode="&#x626;" horiz-adv-x="255" arabic-form="initial" 
d="M268 587v31h-161v36c0 55 23 83 69 83c20 0 37 -7 52 -21l23 26c-19 17 -41 26 -67 26c-69 0 -110 -50 -110 -119v-31h-52l-23 -31h269zM206 167v286l-47 -16v-262c0 -89 -41 -133 -123 -133h-61v-42h67c100 0 164 68 164 167z" />
    <glyph glyph-name="dadinitialarabic" unicode="&#x636;" horiz-adv-x="761" arabic-form="initial" 
d="M715 0c0 7 1 23 2 50c2 27 3 49 3 68c0 85 -14 153 -43 203c-45 77 -111 115 -199 112c-105 -3 -187 -54 -248 -153c-22 -35 -39 -71 -50 -108v186l-47 -16v-300h-149v-42h731zM668 42h-488v38c9 52 35 109 79 171c64 90 137 135 220 135c65 0 116 -28 152 -84
c29 -53 43 -116 43 -187c0 -24 -2 -48 -6 -73zM516 615c0 21 -10 32 -30 32c-22 0 -33 -11 -33 -32c0 -22 11 -33 33 -33c20 0 30 11 30 33z" />
    <glyph glyph-name="alefmaksurainitialarabic" unicode="&#x6cc;" horiz-adv-x="241" arabic-form="initial" 
d="M204 167v286l-47 -16v-262c0 -89 -41 -133 -124 -133h-60v-42h66c101 0 165 68 165 167zM180 -160c0 20 -11 30 -32 30s-31 -10 -31 -30c0 -22 10 -33 31 -33s32 11 32 33zM67 -160c0 20 -11 30 -32 30s-31 -10 -31 -30c0 -22 10 -33 31 -33s32 11 32 33z" />
    <glyph glyph-name="alefmaksuramedialarabic" unicode="&#x6cc;" horiz-adv-x="342" arabic-form="medial" 
d="M364 0v42h-44c-83 0 -124 43 -124 128v283l-47 -15v-263c0 -89 -41 -133 -123 -133h-46v-42h51c67 0 115 25 143 74c29 -49 75 -74 139 -74h51zM265 -160c0 20 -10 30 -31 30s-32 -10 -32 -30c0 -22 11 -33 32 -33s31 11 31 33zM152 -160c0 20 -10 30 -31 30
s-32 -10 -32 -30c0 -22 11 -33 32 -33s31 11 31 33z" />
    <glyph glyph-name="sadinitialarabic" unicode="&#x635;" horiz-adv-x="761" arabic-form="initial" 
d="M715 0c0 7 1 23 2 50c2 27 3 49 3 68c0 85 -14 153 -43 203c-45 77 -111 115 -199 112c-105 -3 -187 -54 -248 -153c-22 -35 -39 -71 -50 -108v186l-47 -16v-300h-149v-42h731zM668 42h-488v38c9 52 35 109 79 171c64 90 137 135 220 135c65 0 116 -28 152 -84
c29 -53 43 -116 43 -187c0 -24 -2 -48 -6 -73z" />
    <glyph glyph-name="pehinitialarabic" unicode="&#x67e;" horiz-adv-x="341" arabic-form="initial" 
d="M291 167v286l-47 -16v-262c0 -89 -41 -133 -122 -133h-134v-42h139c100 0 164 68 164 167zM269 -160c0 20 -11 30 -32 30s-31 -10 -31 -30c0 -22 10 -33 31 -33s32 11 32 33zM155 -160c0 20 -11 30 -32 30c-20 0 -30 -10 -30 -30c0 -22 10 -33 30 -33c21 0 32 11 32 33z
M211 -253c0 21 -10 31 -31 31s-32 -10 -32 -31s11 -32 32 -32s31 11 31 32z" />
    <glyph glyph-name="tchehinitialarabic" unicode="&#x686;" horiz-adv-x="536" arabic-form="initial" 
d="M499 0v117c0 105 -12 181 -35 230c-34 71 -98 106 -193 106c-65 0 -127 -28 -186 -83l33 -33c49 47 100 71 153 71c77 0 129 -32 155 -96c15 -39 22 -104 22 -195v-75h-468v-42h519zM350 -160c0 20 -11 30 -32 30c-20 0 -30 -10 -30 -30c0 -22 10 -33 30 -33
c21 0 32 11 32 33zM237 -160c0 20 -11 30 -32 30s-31 -10 -31 -30c0 -22 10 -33 31 -33s32 11 32 33zM294 -253c0 21 -11 31 -32 31s-32 -10 -32 -31s11 -32 32 -32s32 11 32 32z" />
    <glyph glyph-name="vehinitialarabic" unicode="&#x6a4;" horiz-adv-x="497" arabic-form="initial" 
d="M318 707c0 21 -11 31 -32 31s-31 -10 -31 -31s10 -32 31 -32s32 11 32 32zM375 615c0 21 -10 32 -31 32s-32 -11 -32 -32c0 -22 11 -33 32 -33s31 11 31 33zM262 615c0 21 -10 32 -31 32s-32 -11 -32 -32c0 -22 11 -33 32 -33s31 11 31 33zM460 147v161
c0 41 -13 75 -39 103c-31 31 -75 47 -130 47c-115 0 -179 -60 -179 -148c0 -53 9 -90 26 -111c21 -25 59 -37 116 -37h159v-30c0 -71 -32 -90 -125 -90h-300v-42h312c58 0 99 10 123 29c25 19 37 59 37 118zM413 200h-139c-47 0 -77 7 -92 21s-22 43 -22 87
c0 68 51 108 131 108c75 0 122 -45 122 -109v-107z" />
    <glyph glyph-name="pehmedialarabic" unicode="&#x67e;" horiz-adv-x="420" arabic-form="medial" 
d="M432 0v42h-88c-82 0 -123 43 -123 128v283l-47 -15v-263c0 -89 -41 -133 -123 -133h-63v-42h68c67 0 115 25 143 74c29 -49 75 -74 139 -74h94zM284 -160c0 20 -10 30 -31 30s-32 -10 -32 -30c0 -22 11 -33 32 -33s31 11 31 33zM170 -160c0 20 -10 30 -31 30
s-32 -10 -32 -30c0 -22 11 -33 32 -33s31 11 31 33zM227 -253c0 21 -11 31 -32 31s-31 -10 -31 -31s10 -32 31 -32s32 11 32 32z" />
    <glyph glyph-name="tchehmedialarabic" unicode="&#x686;" horiz-adv-x="639" arabic-form="medial" 
d="M656 0v42h-155v75c0 105 -12 181 -35 230c-33 71 -97 106 -191 106c-67 0 -129 -28 -187 -83l33 -33c49 47 101 71 154 71c77 0 128 -32 153 -96c16 -39 24 -104 24 -195v-75h-472v-42h676zM394 -160c0 20 -11 30 -32 30s-31 -10 -31 -30c0 -22 10 -33 31 -33
s32 11 32 33zM280 -160c0 20 -10 30 -31 30s-32 -10 -32 -30c0 -22 11 -33 32 -33s31 11 31 33zM337 -253c0 21 -11 31 -32 31s-32 -10 -32 -31s11 -32 32 -32s32 11 32 32z" />
    <glyph glyph-name="vehmedialarabic" unicode="&#x6a4;" horiz-adv-x="447" arabic-form="medial" 
d="M223 707c0 21 -10 31 -30 31c-22 0 -33 -10 -33 -31s11 -32 33 -32c20 0 30 11 30 32zM280 615c0 20 -10 30 -31 30s-32 -10 -32 -30c0 -22 11 -33 32 -33s31 11 31 33zM168 615c0 20 -11 30 -32 30s-32 -10 -32 -30c0 -22 11 -33 32 -33s32 11 32 33zM475 0v42
c-114 -3 -175 0 -184 9c35 19 62 49 82 88c19 37 28 77 28 119c0 53 -14 98 -43 133c-34 39 -81 60 -141 62c-56 1 -100 -12 -133 -41c-30 -26 -46 -62 -49 -107c-8 -104 41 -189 148 -254c-12 -9 -80 -12 -203 -9v-42h172c32 0 61 6 86 19c37 -13 66 -19 87 -19h150z
M239 69c-45 19 -82 49 -113 90c-31 42 -46 83 -46 124c0 80 59 128 143 124c44 -1 78 -17 102 -48c21 -28 32 -63 32 -104s-10 -78 -31 -112c-21 -37 -50 -61 -87 -74z" />
    <glyph glyph-name="pehfinalarabic" unicode="&#x67e;" horiz-adv-x="880" arabic-form="final" 
d="M897 0v42h-47c-82 0 -123 43 -123 128v283l-46 -15v-263c0 -89 -41 -133 -123 -133h-338c-83 0 -124 44 -124 133v188l-47 -59v-137c0 -103 62 -167 157 -167h357c67 0 114 25 142 74c29 -49 75 -74 139 -74h53zM491 -160c0 20 -11 30 -32 30s-31 -10 -31 -30
c0 -22 10 -33 31 -33s32 11 32 33zM378 -160c0 20 -10 30 -31 30s-32 -10 -32 -30c0 -22 11 -33 32 -33s31 11 31 33zM434 -253c0 21 -11 31 -32 31s-32 -10 -32 -31s11 -32 32 -32s32 11 32 32z" />
    <glyph glyph-name="tchehfinalarabic" unicode="&#x686;" horiz-adv-x="687" arabic-form="final" 
d="M703 0v42h-22c-107 0 -173 67 -196 202c-25 139 -100 209 -225 209c-65 0 -127 -28 -186 -83l33 -33c49 47 100 71 153 71c80 0 148 -48 167 -124h-144c-70 0 -127 -23 -170 -68s-64 -103 -64 -174c0 -67 22 -123 67 -168s100 -67 167 -67c48 0 92 13 133 38v45
c-34 -27 -78 -41 -133 -41s-99 18 -133 55c-33 36 -50 82 -50 138c0 57 16 105 49 143s78 57 134 57l156 1c12 -70 35 -126 69 -169c41 -49 96 -74 163 -74h32zM383 80c0 21 -11 32 -33 32c-21 0 -32 -11 -32 -32s11 -31 32 -31c22 0 33 10 33 31zM269 80
c0 21 -11 32 -32 32s-32 -11 -32 -32s11 -31 32 -31s32 10 32 31zM325 -12c0 21 -10 32 -31 32s-32 -11 -32 -32s11 -31 32 -31s31 10 31 31z" />
    <glyph glyph-name="vehfinalarabic" unicode="&#x6a4;" horiz-adv-x="779" arabic-form="final" 
d="M569 707c0 21 -10 31 -31 31s-32 -10 -32 -31s11 -32 32 -32s31 11 31 32zM627 615c0 20 -11 30 -32 30s-32 -10 -32 -30c0 -22 11 -33 32 -33s32 11 32 33zM513 615c0 20 -11 30 -32 30s-32 -10 -32 -30c0 -22 11 -33 32 -33s32 11 32 33zM786 0v42
c-91 -3 -140 0 -149 9c35 19 62 49 82 88c19 37 29 77 29 119c0 53 -15 98 -45 133c-33 39 -79 60 -140 62c-112 3 -176 -57 -183 -148c-7 -104 42 -189 148 -254c-7 -5 -35 -9 -84 -10l-224 1c-83 0 -124 44 -124 133v188l-47 -59v-137c0 -104 63 -167 166 -167h282
c32 0 61 6 87 19c37 -13 65 -19 86 -19h116zM585 69c-45 19 -83 49 -114 90c-30 42 -45 83 -45 124c0 40 14 72 42 95c25 21 59 31 101 29c43 -1 77 -17 101 -48c21 -28 32 -63 32 -104s-10 -78 -29 -112c-23 -37 -52 -61 -88 -74z" />
    <glyph glyph-name="jehfinalarabic" unicode="&#x698;" horiz-adv-x="415" arabic-form="final" 
d="M427 0v42h-143v411l-47 -15v-407c0 -52 -12 -94 -35 -126c-25 -38 -62 -57 -111 -57c-39 0 -76 8 -110 24l20 -46c28 -13 58 -19 90 -19c58 0 104 18 137 54c31 33 50 80 55 139h144zM234 707c0 21 -10 31 -30 31c-22 0 -33 -10 -33 -31s11 -32 33 -32c20 0 30 11 30 32z
M291 615c0 20 -10 30 -31 30s-32 -10 -32 -30c0 -22 11 -33 32 -33s31 11 31 33zM179 615c0 20 -11 30 -32 30s-32 -10 -32 -30c0 -22 11 -33 32 -33s32 11 32 33z" />
    <glyph glyph-name="hamzaarabic" unicode="&#x621;" horiz-adv-x="523" arabic-form="isolated" 
d="M486 0v42h-266v74c0 76 46 136 119 136c33 0 62 -12 85 -36l34 35c-28 29 -64 43 -108 43c-55 0 -99 -18 -130 -55s-47 -83 -47 -140v-57h-84l-40 -42h437z" />
    <glyph glyph-name="alefarabic" unicode="&#x627;" horiz-adv-x="146" arabic-form="isolated" 
d="M109 0v645l-47 -14v-631h47z" />
    <glyph glyph-name="beharabic" unicode="&#x628;" horiz-adv-x="764" arabic-form="isolated" 
d="M727 167v286l-46 -15v-263c0 -89 -41 -133 -123 -133h-338c-83 0 -124 44 -124 133v188l-47 -59v-137c0 -103 62 -167 157 -167h357c101 0 164 64 164 167zM415 -160c0 20 -10 30 -31 30s-32 -10 -32 -30c0 -22 11 -33 32 -33s31 11 31 33z" />
    <glyph glyph-name="tehmarbutaarabic" unicode="&#x629;" horiz-adv-x="447" arabic-form="isolated" 
d="M315 615c0 21 -11 32 -32 32s-32 -11 -32 -32c0 -22 11 -33 32 -33s32 11 32 33zM201 615c0 21 -11 32 -32 32s-31 -11 -31 -32c0 -22 10 -33 31 -33s32 11 32 33zM410 230c0 66 -13 119 -40 159c-30 46 -77 69 -140 69s-110 -23 -141 -69c-27 -40 -40 -93 -40 -159
c0 -68 13 -122 40 -161c31 -46 78 -69 141 -69s110 23 140 69c27 39 40 93 40 161zM363 230c0 -125 -44 -188 -133 -188s-134 63 -134 188s45 187 134 187s133 -62 133 -187z" />
    <glyph glyph-name="teharabic" unicode="&#x62a;" horiz-adv-x="764" arabic-form="isolated" 
d="M481 454c0 21 -11 32 -32 32s-31 -11 -31 -32s10 -31 31 -31s32 10 32 31zM368 454c0 21 -10 32 -31 32s-32 -11 -32 -32s11 -31 32 -31s31 10 31 31zM727 167v286l-46 -15v-263c0 -89 -41 -133 -123 -133h-338c-83 0 -124 44 -124 133v188l-47 -59v-137
c0 -103 62 -167 157 -167h357c101 0 164 64 164 167z" />
    <glyph glyph-name="theharabic" unicode="&#x62b;" horiz-adv-x="764" arabic-form="isolated" 
d="M424 502c0 21 -11 32 -32 32c-20 0 -30 -11 -30 -32s10 -31 30 -31c21 0 32 10 32 31zM481 410c0 21 -11 32 -32 32s-31 -11 -31 -32s10 -31 31 -31s32 10 32 31zM368 410c0 21 -10 32 -31 32s-32 -11 -32 -32s11 -31 32 -31s31 10 31 31zM727 167v286l-46 -15v-263
c0 -89 -41 -133 -123 -133h-338c-83 0 -124 44 -124 133v188l-47 -59v-137c0 -103 62 -167 157 -167h357c101 0 164 64 164 167z" />
    <glyph glyph-name="jeemarabic" unicode="&#x62c;" horiz-adv-x="522" arabic-form="isolated" 
d="M485 242c-13 128 -96 211 -225 211c-65 0 -127 -28 -186 -83l33 -33c49 47 100 71 153 71c80 0 148 -48 167 -124h-144c-70 0 -127 -23 -170 -68s-64 -103 -64 -174c0 -67 22 -123 67 -168s100 -67 167 -67c48 0 92 13 133 38v45c-34 -27 -78 -41 -133 -41
s-99 18 -133 55c-33 36 -50 82 -50 138c0 57 16 105 49 143s78 57 134 57h202zM320 70c0 21 -10 32 -31 32s-32 -11 -32 -32s11 -32 32 -32s31 11 31 32z" />
    <glyph glyph-name="haharabic" unicode="&#x62d;" horiz-adv-x="522" arabic-form="isolated" 
d="M485 242c-13 128 -96 211 -225 211c-65 0 -127 -28 -186 -83l33 -33c49 47 100 71 153 71c80 0 148 -48 167 -124h-144c-70 0 -127 -23 -170 -68s-64 -103 -64 -174c0 -67 22 -123 67 -168s100 -67 167 -67c48 0 92 13 133 38v45c-34 -27 -78 -41 -133 -41
s-99 18 -133 55c-33 36 -50 82 -50 138c0 57 16 105 49 143s78 57 134 57h202z" />
    <glyph glyph-name="khaharabic" unicode="&#x62e;" horiz-adv-x="522" arabic-form="isolated" 
d="M290 615c0 21 -10 32 -31 32s-32 -11 -32 -32c0 -22 11 -33 32 -33s31 11 31 33zM485 242c-13 128 -96 211 -225 211c-65 0 -127 -28 -186 -83l33 -33c49 47 100 71 153 71c80 0 148 -48 167 -124h-144c-70 0 -127 -23 -170 -68s-64 -103 -64 -174c0 -67 22 -123 67 -168
s100 -67 167 -67c48 0 92 13 133 38v45c-34 -27 -78 -41 -133 -41s-99 18 -133 55c-33 36 -50 82 -50 138c0 57 16 105 49 143s78 57 134 57h202z" />
    <glyph glyph-name="dalarabic" unicode="&#x62f;" horiz-adv-x="428" arabic-form="isolated" 
d="M391 0v254c0 104 -68 168 -171 168c-51 0 -93 -19 -126 -58v-78c25 63 67 94 126 94c82 0 123 -44 123 -133v-205h-266l-28 -42h342z" />
    <glyph glyph-name="thalarabic" unicode="&#x630;" horiz-adv-x="428" arabic-form="isolated" 
d="M251 615c0 21 -10 32 -31 32s-32 -11 -32 -32c0 -22 11 -33 32 -33s31 11 31 33zM391 0v254c0 104 -68 168 -171 168c-51 0 -93 -19 -126 -58v-78c25 63 67 94 126 94c82 0 123 -44 123 -133v-205h-266l-28 -42h342z" />
    <glyph glyph-name="reharabic" unicode="&#x631;" horiz-adv-x="321" arabic-form="isolated" 
d="M284 33v420l-47 -15v-407c0 -52 -12 -94 -35 -126c-25 -38 -62 -57 -111 -57c-39 0 -76 8 -110 24l20 -46c28 -13 58 -19 90 -19c63 0 111 21 145 63c32 40 48 94 48 163z" />
    <glyph glyph-name="zainarabic" unicode="&#x632;" horiz-adv-x="328" arabic-form="isolated" 
d="M291 615c0 21 -10 32 -31 32s-32 -11 -32 -32c0 -22 11 -33 32 -33s31 11 31 33zM284 33v420l-47 -15v-407c0 -52 -12 -94 -35 -126c-25 -38 -62 -57 -111 -57c-39 0 -76 8 -110 24l20 -46c28 -13 58 -19 90 -19c63 0 111 21 145 63c32 40 48 94 48 163z" />
    <glyph glyph-name="seenarabic" unicode="&#x633;" horiz-adv-x="1198" arabic-form="isolated" 
d="M1151 167v286l-47 -16v-262c0 -89 -41 -133 -123 -133h-126v362l-47 -15v-347h-250v315l-47 -15v-343c0 -61 -20 -103 -59 -124c-27 -15 -73 -22 -137 -22c-157 0 -219 80 -219 261v70l-47 -15c-1 -35 0 -59 2 -73c7 -99 28 -170 63 -213c40 -51 106 -76 199 -76
c168 0 245 57 245 193h429c103 0 164 64 164 167z" />
    <glyph glyph-name="sheenarabic" unicode="&#x634;" horiz-adv-x="1198" arabic-form="isolated" 
d="M1151 167v286l-47 -16v-262c0 -89 -41 -133 -123 -133h-126v362l-47 -15v-347h-250v315l-47 -15v-343c0 -61 -20 -103 -59 -124c-27 -15 -73 -22 -137 -22c-157 0 -219 80 -219 261v70l-47 -15c-1 -35 0 -59 2 -73c7 -99 28 -170 63 -213c40 -51 106 -76 199 -76
c168 0 245 57 245 193h429c103 0 164 64 164 167zM803 615c0 21 -11 32 -32 32s-32 -11 -32 -32c0 -22 11 -33 32 -33s32 11 32 33zM917 615c0 21 -11 32 -32 32s-32 -11 -32 -32c0 -22 11 -33 32 -33s32 11 32 33zM859 707c0 21 -10 31 -31 31s-32 -10 -32 -31
s11 -32 32 -32s31 11 31 32z" />
    <glyph glyph-name="sadarabic" unicode="&#x635;" horiz-adv-x="1149" arabic-form="isolated" 
d="M1093 0c0 7 1 23 2 50c2 27 3 49 3 68c0 85 -14 153 -43 203c-45 77 -111 115 -199 112c-105 -3 -187 -54 -248 -153c-22 -35 -39 -71 -50 -108v185l-47 -15v-343c0 -61 -20 -103 -59 -124c-27 -15 -73 -22 -137 -22c-157 0 -219 80 -219 261v70l-47 -15
c-1 -35 0 -59 2 -73c7 -99 28 -170 63 -213c40 -51 106 -76 199 -76c168 0 245 57 245 193h535zM1046 42h-488v38c9 52 35 109 79 171c64 90 137 135 220 135c65 0 116 -28 152 -84c29 -53 43 -116 43 -187c0 -24 -2 -48 -6 -73z" />
    <glyph glyph-name="dadarabic" unicode="&#x636;" horiz-adv-x="1149" arabic-form="isolated" 
d="M1093 0c0 7 1 23 2 50c2 27 3 49 3 68c0 85 -14 153 -43 203c-45 77 -111 115 -199 112c-105 -3 -187 -54 -248 -153c-22 -35 -39 -71 -50 -108v185l-47 -15v-343c0 -61 -20 -103 -59 -124c-27 -15 -73 -22 -137 -22c-157 0 -219 80 -219 261v70l-47 -15
c-1 -35 0 -59 2 -73c7 -99 28 -170 63 -213c40 -51 106 -76 199 -76c168 0 245 57 245 193h535zM1046 42h-488v38c9 52 35 109 79 171c64 90 137 135 220 135c65 0 116 -28 152 -84c29 -53 43 -116 43 -187c0 -24 -2 -48 -6 -73zM894 615c0 21 -10 32 -30 32
c-22 0 -33 -11 -33 -32c0 -22 11 -33 33 -33c20 0 30 11 30 33z" />
    <glyph glyph-name="taharabic" unicode="&#x637;" horiz-adv-x="766" arabic-form="isolated" 
d="M724 0c0 7 1 23 2 50c2 27 3 50 3 68c0 85 -14 153 -43 203c-45 77 -111 115 -199 112c-141 -4 -240 -91 -297 -261v447l-47 -16v-561h-73l-21 -42h675zM679 42l-496 -1c7 70 37 142 90 217c65 91 138 134 221 129c65 -3 114 -30 148 -83c29 -55 43 -118 43 -189
c0 -24 -2 -48 -6 -73z" />
    <glyph glyph-name="zaharabic" unicode="&#x638;" horiz-adv-x="766" arabic-form="isolated" 
d="M485 615c0 21 -11 32 -32 32s-31 -11 -31 -32c0 -22 10 -33 31 -33s32 11 32 33zM724 0c0 7 1 23 2 50c2 27 3 50 3 68c0 85 -14 153 -43 203c-45 77 -111 115 -199 112c-141 -4 -240 -91 -297 -261v447l-47 -16v-561h-73l-21 -42h675zM679 42l-496 -1
c7 70 37 142 90 217c65 91 138 134 221 129c65 -3 114 -30 148 -83c29 -55 43 -118 43 -189c0 -24 -2 -48 -6 -73z" />
    <glyph glyph-name="ainarabic" unicode="&#x639;" horiz-adv-x="502" arabic-form="isolated" 
d="M465 242l-33 41h-196v34c0 55 31 95 84 95c26 0 46 -9 61 -28l34 33c-26 24 -55 36 -88 36c-85 0 -136 -63 -136 -148v-38c-88 -33 -142 -118 -142 -225c0 -67 22 -123 67 -168s100 -67 167 -67c48 0 92 13 133 38v45c-34 -27 -78 -41 -133 -41s-99 18 -133 55
c-33 36 -50 82 -50 138c0 57 16 105 49 143s78 57 134 57h182z" />
    <glyph glyph-name="ghainarabic" unicode="&#x63a;" horiz-adv-x="502" arabic-form="isolated" 
d="M357 615c0 20 -11 30 -32 30s-31 -10 -31 -30c0 -22 10 -33 31 -33s32 11 32 33zM465 242l-33 41h-196v34c0 55 31 95 84 95c26 0 46 -9 61 -28l34 33c-26 24 -55 36 -88 36c-85 0 -136 -63 -136 -148v-38c-88 -33 -142 -118 -142 -225c0 -67 22 -123 67 -168
s100 -67 167 -67c48 0 92 13 133 38v45c-34 -27 -78 -41 -133 -41s-99 18 -133 55c-33 36 -50 82 -50 138c0 57 16 105 49 143s78 57 134 57h182z" />
    <glyph glyph-name="feharabic" unicode="&#x641;" horiz-adv-x="770" arabic-form="isolated" 
d="M590 615c0 20 -10 30 -31 30s-32 -10 -32 -30c0 -22 11 -33 32 -33s31 11 31 33zM733 147v161c0 41 -13 75 -39 103c-31 31 -75 47 -130 47c-115 0 -179 -60 -179 -148c0 -53 9 -90 26 -111c21 -25 59 -37 116 -37h159v-30c0 -71 -31 -90 -126 -90h-340
c-83 0 -124 44 -124 133v188l-47 -59v-137c0 -103 62 -167 166 -167h358c58 0 99 10 123 29c25 19 37 59 37 118zM686 200h-139c-47 0 -78 7 -93 21c-14 14 -21 43 -21 87c0 68 50 108 131 108c73 0 122 -45 122 -109v-107z" />
    <glyph glyph-name="qafarabic" unicode="&#x642;" horiz-adv-x="598" arabic-form="isolated" 
d="M474 615c0 20 -10 30 -31 30s-32 -10 -32 -30c0 -22 11 -33 32 -33s31 11 31 33zM362 615c0 20 -11 30 -33 30c-21 0 -32 -10 -32 -30c0 -22 11 -33 32 -33c22 0 33 11 33 33zM561 228c1 59 -12 108 -40 146c-31 41 -75 62 -132 62c-114 0 -171 -73 -171 -219
c0 -145 57 -217 171 -217c49 0 90 16 122 47v-47c-2 -99 -68 -148 -198 -147c-79 1 -135 22 -169 64c-32 40 -48 106 -48 197l-47 -17c7 -101 27 -172 60 -214c39 -51 107 -76 203 -76c163 0 245 64 245 193zM515 217c0 -117 -42 -176 -126 -176c-83 0 -125 59 -125 176
c0 118 42 177 125 177c84 0 126 -59 126 -177z" />
    <glyph glyph-name="kafarabic" unicode="&#x643;" horiz-adv-x="764" arabic-form="isolated" 
d="M518 301v32h-164v43c0 45 26 79 69 79c20 0 37 -8 52 -23l27 27c-21 20 -44 30 -71 30c-71 0 -114 -53 -114 -124v-32h-49l-31 -32h281zM727 167v478l-46 -14v-456c0 -89 -41 -133 -123 -133h-338c-83 0 -124 44 -124 133v188l-47 -59v-137c0 -103 62 -167 157 -167h357
c101 0 164 64 164 167z" />
    <glyph glyph-name="lamarabic" unicode="&#x644;" horiz-adv-x="594" arabic-form="isolated" 
d="M557 645l-47 -14v-632c0 -61 -20 -103 -60 -124c-27 -15 -72 -22 -137 -22c-155 0 -218 80 -218 261l-46 -17c7 -99 28 -170 63 -213c41 -51 108 -77 200 -77c168 0 245 57 245 193v645z" />
    <glyph glyph-name="meemarabic" unicode="&#x645;" horiz-adv-x="687" arabic-form="isolated" 
d="M650 237c0 144 -56 216 -169 216h-238c-66 0 -114 -13 -143 -40c-34 -29 -51 -80 -51 -153v-453l47 17v436c0 59 14 98 42 119c24 18 66 27 125 27h101c-35 -35 -53 -91 -53 -169c0 -144 57 -216 170 -216s169 72 169 216zM603 237c0 -115 -41 -173 -122 -173
c-82 0 -123 58 -123 173s41 173 123 173c81 0 122 -58 122 -173z" />
    <glyph glyph-name="noonarabic" unicode="&#x646;" horiz-adv-x="595" arabic-form="isolated" 
d="M333 301c0 21 -10 32 -31 32s-32 -11 -32 -32s11 -32 32 -32s31 11 31 32zM558 0v357l-47 -15v-343c0 -61 -20 -103 -59 -124c-27 -15 -73 -22 -137 -22c-157 0 -219 80 -219 261v70l-47 -15c-1 -35 0 -59 2 -73c7 -99 28 -170 63 -213c40 -51 106 -76 199 -76
c168 0 245 57 245 193z" />
    <glyph glyph-name="heharabic" unicode="&#x647;" horiz-adv-x="447" arabic-form="isolated" 
d="M410 230c0 66 -13 119 -40 159c-30 46 -77 69 -140 69s-110 -23 -141 -69c-27 -40 -40 -93 -40 -159c0 -68 13 -122 40 -161c31 -46 78 -69 141 -69s110 23 140 69c27 39 40 93 40 161zM363 230c0 -125 -44 -188 -133 -188s-134 63 -134 188s45 187 134 187
s133 -62 133 -187z" />
    <glyph glyph-name="wawarabic" unicode="&#x648;" horiz-adv-x="429" arabic-form="isolated" 
d="M392 228c2 59 -11 108 -40 146c-31 41 -74 62 -131 62c-115 0 -172 -73 -172 -219c0 -145 57 -217 172 -217c47 0 86 16 117 47c2 0 3 -5 3 -16c1 -52 -11 -94 -34 -126c-26 -38 -63 -57 -111 -57c-40 0 -77 8 -111 24l21 -46c28 -13 58 -19 90 -19c63 0 111 22 145 65
c31 39 46 93 46 161zM346 217c0 -117 -42 -176 -125 -176s-125 59 -125 176c0 118 42 177 125 177s125 -59 125 -177z" />
    <glyph glyph-name="alefmaksuraarabic" unicode="&#x649;" horiz-adv-x="596" arabic-form="isolated" 
d="M559 395c-34 39 -78 58 -132 58c-103 0 -165 -64 -165 -167v-127h249v-163v-1c0 -92 -67 -139 -201 -141c-153 -1 -214 79 -214 260l-47 -15c9 -99 29 -169 60 -211c39 -54 106 -81 201 -81c161 0 244 61 248 184h-1v211l-247 -1v77c0 89 41 133 123 133
c55 0 93 -21 112 -64z" />
    <glyph glyph-name="yeharabic" unicode="&#x64a;" horiz-adv-x="596" arabic-form="isolated" 
d="M559 395c-34 39 -78 58 -132 58c-103 0 -165 -64 -165 -167v-127h249v-163v-1c0 -92 -67 -139 -201 -141c-153 -1 -214 79 -214 260l-47 -15c9 -99 29 -169 60 -211c39 -54 106 -81 201 -81c161 0 244 61 248 184h-1v211l-247 -1v77c0 89 41 133 123 133
c55 0 93 -21 112 -64zM402 -317c0 21 -11 32 -32 32s-31 -11 -31 -32s10 -31 31 -31s32 10 32 31zM289 -317c0 21 -11 32 -32 32s-31 -11 -31 -32s10 -31 31 -31s32 10 32 31z" />
    <glyph glyph-name="fathatanarabic" unicode="&#xfe70;" arabic-form="isolated" 
d="M222 759l-130 -21c-29 -4 -47 -12 -54 -25l147 19c19 0 31 9 37 27zM210 712l-149 -22c-19 3 -33 -5 -43 -25l80 6c22 2 44 4 65 7c25 3 40 15 47 34z" />
    <glyph glyph-name="dammatanarabic" unicode="&#xfe72;" arabic-form="isolated" 
d="M223 704l-3 36c-12 7 -18 16 -18 27c0 12 15 44 15 57c0 6 -1 11 -4 16c-5 16 -19 24 -41 24c-33 -16 -50 -45 -50 -86c7 -14 19 -28 36 -42c-23 -21 -43 -33 -58 -35c0 37 -1 59 -3 65c-5 20 -16 29 -33 26c-12 -6 -20 -17 -23 -33c-1 -3 -3 -19 -5 -46
c13 21 21 32 22 33c19 7 30 -13 30 -29c0 -10 -8 -28 -24 -55c49 11 87 32 114 65c25 -14 40 -22 45 -23zM184 778c-21 21 -31 34 -31 41c0 8 4 14 11 14c8 0 15 -6 20 -19c5 -11 5 -23 0 -36z" />
    <glyph glyph-name="kasratanarabic" unicode="&#xfe74;" arabic-form="isolated" 
d="M147 -220l-116 -61c-27 -14 -41 -28 -43 -42l133 65c17 5 26 17 26 38zM151 -268l-134 -69c-18 -3 -29 -15 -32 -38l74 32c19 9 39 17 58 26c23 11 34 28 34 49z" />
    <glyph glyph-name="fathaarabic" unicode="&#xfe76;" arabic-form="isolated" 
d="M217 771l-133 -68c-19 -4 -29 -17 -32 -39l74 32c19 9 38 19 59 29s32 25 32 46z" />
    <glyph glyph-name="dammaarabic" unicode="&#xfe78;" arabic-form="isolated" 
d="M204 716v30c-9 4 -14 9 -14 15c0 2 3 11 10 26c5 11 5 21 0 29c-4 14 -14 21 -31 21c-15 0 -27 -5 -36 -15c-15 -11 -23 -24 -23 -40c3 -7 8 -14 16 -21c1 -2 8 -7 20 -15c-26 -28 -62 -55 -108 -82c27 -3 51 4 74 20c13 9 31 28 56 55zM172 800c4 -5 3 -16 -4 -32
c-20 11 -32 20 -35 29c0 8 4 14 13 19c11 4 20 -1 26 -16z" />
    <glyph glyph-name="kasraarabic" unicode="&#xfe7a;" arabic-form="isolated" 
d="M172 -216l-116 -62c-28 -15 -43 -30 -45 -47l135 71c17 6 26 19 26 38z" />
    <glyph glyph-name="shaddaarabic" unicode="&#xfe7c;" arabic-form="isolated" 
d="M191 828l-10 -4c1 -9 -1 -26 -7 -52c-3 -15 -11 -19 -22 -14c-9 4 -15 10 -20 18c-1 2 -4 9 -10 22l-6 -2c0 -18 -5 -39 -14 -62c-5 -15 -13 -22 -24 -22c-3 0 -7 1 -10 2c-16 9 -16 35 -20 52l-6 -3c-6 -37 -6 -61 0 -74c5 -17 19 -25 42 -25c10 3 19 11 26 22
c10 17 16 26 18 28l10 -6c23 -5 39 0 50 14c9 10 14 25 14 44c0 16 -4 37 -11 62z" />
    <glyph glyph-name="sukunarabic" unicode="&#xfe7e;" arabic-form="isolated" 
d="M176 753c-14 41 -38 62 -71 62c-19 -9 -32 -18 -41 -29c-19 -19 -29 -40 -29 -61c0 -8 1 -16 3 -23c24 -36 41 -38 61 -38c26 0 48 8 65 24s21 38 12 65zM146 711c-7 -9 -21 -11 -34 -12c-18 0 -29 9 -32 28c-4 22 3 39 20 52c24 -7 39 -30 46 -68z" />
    <glyph glyph-name="peharabic" unicode="&#x67e;" horiz-adv-x="764" arabic-form="isolated" 
d="M727 167v286l-46 -15v-263c0 -89 -41 -133 -123 -133h-338c-83 0 -124 44 -124 133v188l-47 -59v-137c0 -103 62 -167 157 -167h357c101 0 164 64 164 167zM491 -160c0 20 -11 30 -32 30s-31 -10 -31 -30c0 -22 10 -33 31 -33s32 11 32 33zM378 -160c0 20 -10 30 -31 30
s-32 -10 -32 -30c0 -22 11 -33 32 -33s31 11 31 33zM434 -253c0 21 -11 31 -32 31s-32 -10 -32 -31s11 -32 32 -32s32 11 32 32z" />
    <glyph glyph-name="tcheharabic" unicode="&#x686;" horiz-adv-x="522" arabic-form="isolated" 
d="M391 84c0 21 -11 32 -32 32s-32 -11 -32 -32s11 -31 32 -31s32 10 32 31zM485 242c-13 128 -96 211 -225 211c-65 0 -127 -28 -186 -83l33 -33c49 47 100 71 153 71c80 0 148 -48 167 -124h-144c-70 0 -127 -23 -170 -68s-64 -103 -64 -174c0 -67 22 -123 67 -168
s100 -67 167 -67c48 0 92 13 133 38v45c-34 -27 -78 -41 -133 -41s-99 18 -133 55c-33 36 -50 82 -50 138c0 57 16 105 49 143s78 57 134 57h202zM278 84c0 21 -11 32 -32 32c-22 0 -33 -11 -33 -32s11 -31 33 -31c21 0 32 10 32 31zM333 -9c0 21 -10 32 -31 32
s-32 -11 -32 -32c0 -20 11 -30 32 -30s31 10 31 30z" />
    <glyph glyph-name="veharabic" unicode="&#x6a4;" horiz-adv-x="770" arabic-form="isolated" 
d="M598 707c0 21 -11 31 -32 31s-32 -10 -32 -31s11 -32 32 -32s32 11 32 32zM655 615c0 20 -11 30 -32 30s-31 -10 -31 -30c0 -22 10 -33 31 -33s32 11 32 33zM542 615c0 20 -10 30 -31 30s-32 -10 -32 -30c0 -22 11 -33 32 -33s31 11 31 33zM733 147v161
c0 41 -13 75 -39 103c-31 31 -75 47 -130 47c-115 0 -179 -60 -179 -148c0 -53 9 -90 26 -111c21 -25 59 -37 116 -37h159v-30c0 -71 -31 -90 -126 -90h-340c-83 0 -124 44 -124 133v188l-47 -59v-137c0 -103 62 -167 166 -167h358c58 0 99 10 123 29c25 19 37 59 37 118z
M686 200h-139c-47 0 -78 7 -93 21c-14 14 -21 43 -21 87c0 68 50 108 131 108c73 0 122 -45 122 -109v-107z" />
    <glyph glyph-name="jeharabic" unicode="&#x698;" horiz-adv-x="328" arabic-form="isolated" 
d="M284 33v420l-47 -15v-407c0 -52 -12 -94 -35 -126c-25 -38 -62 -57 -111 -57c-39 0 -76 8 -110 24l20 -46c28 -13 58 -19 90 -19c63 0 111 21 145 63c32 40 48 94 48 163zM234 707c0 21 -10 31 -30 31c-22 0 -33 -10 -33 -31s11 -32 33 -32c20 0 30 11 30 32zM291 615
c0 20 -10 30 -31 30s-32 -10 -32 -30c0 -22 11 -33 32 -33s31 11 31 33zM179 615c0 20 -11 30 -32 30s-32 -10 -32 -30c0 -22 11 -33 32 -33s32 11 32 33z" />
    <glyph glyph-name="alefwithfathatanisolated" unicode="&#xfd3d;" horiz-adv-x="146" arabic-form="isolated" 
d="M109 0v645l-47 -14v-631h47zM201 779l-130 -21c-29 -4 -47 -12 -54 -25l147 19c19 0 31 9 37 27zM189 732l-149 -22c-19 3 -33 -5 -43 -25l80 6c22 2 44 4 65 7c25 3 40 15 47 34z" />
    <glyph glyph-name="alefwithfathatanfinal" unicode="&#xfd3c;" horiz-adv-x="262" arabic-form="final" 
d="M274 0v42h-96c-46 0 -69 25 -69 75v530l-47 -16v-515c0 -77 36 -116 107 -116h105zM201 779l-130 -21c-29 -4 -47 -12 -54 -25l147 19c19 0 31 9 37 27zM189 732l-149 -22c-19 3 -33 -5 -43 -25l80 6c22 2 44 4 65 7c25 3 40 15 47 34z" />
    <glyph glyph-name="alefwaslafinal" unicode="&#x671;" horiz-adv-x="262" arabic-form="final" 
d="M274 0v42h-96c-46 0 -69 25 -69 75v530l-47 -16v-515c0 -77 36 -116 107 -116h105zM204 741c-15 27 -36 41 -62 41c-33 -21 -57 -39 -73 -54c-23 -6 -40 -9 -53 -8l-26 19c3 7 -6 -5 -25 -37c7 -2 13 0 20 5c17 -9 30 -17 40 -22h110h24c11 0 19 2 25 5c13 7 20 24 20 51
zM181 725c1 -1 0 -3 -5 -6c-13 -3 -41 -2 -85 3c20 19 40 27 60 23c15 -5 25 -11 30 -20z" />
    <glyph glyph-name="alefwaslaisolated" unicode="&#x671;" horiz-adv-x="146" arabic-form="isolated" 
d="M109 0v645l-47 -14v-631h47zM204 741c-15 27 -36 41 -62 41c-33 -21 -57 -39 -73 -54c-23 -6 -40 -9 -53 -8l-26 19c3 7 -6 -5 -25 -37c7 -2 13 0 20 5c17 -9 30 -17 40 -22h110h24c11 0 19 2 25 5c13 7 20 24 20 51zM181 725c1 -1 0 -3 -5 -6c-13 -3 -41 -2 -85 3
c20 19 40 27 60 23c15 -5 25 -11 30 -20z" />
    <glyph glyph-name="wawfinalarabic" unicode="&#x648;" horiz-adv-x="497" arabic-form="final" 
d="M510 0v42h-142c2 47 3 102 3 163c0 147 -53 221 -160 221c-59 0 -103 -22 -132 -66c-26 -39 -39 -90 -39 -155c0 -59 14 -106 43 -143c32 -40 76 -61 132 -62h103c-4 -42 -17 -76 -39 -102c-24 -29 -57 -43 -99 -43c-41 0 -76 7 -106 22l19 -44c29 -12 59 -18 88 -18
c55 0 98 18 130 53c31 32 49 76 54 132h145zM327 205c-1 -39 -1 -94 -2 -163h-110c-43 0 -76 16 -99 49c-21 30 -31 68 -31 114c0 121 42 181 126 181c79 0 117 -60 116 -181z" />
    <glyph glyph-name=".notdef" horiz-adv-x="500" 
d="M63 0h375v750h-375v-750zM125 63v625h250v-625h-250z" />
    <glyph glyph-name=".null" 
 />
    <glyph glyph-name="CR" horiz-adv-x="333" 
 />
    <glyph glyph-name="space" unicode=" " horiz-adv-x="162" 
 />
    <glyph glyph-name="_4" horiz-adv-x="280" 
 />
    <glyph glyph-name="_13" horiz-adv-x="273" 
 />
    <glyph glyph-name="kashidaautoarabic" horiz-adv-x="80" 
d="M100 0v42h-112v-42h112z" />
    <glyph glyph-name="decimalseparatorarabic" unicode="&#x66b;" horiz-adv-x="130" 
d="M99 1v185l-37 -61v-124h37z" />
    <glyph glyph-name="thousandsseparatorarabic" unicode="&#x66c;" horiz-adv-x="130" 
d="M99 1v185l-37 -61v-124h37z" />
    <glyph glyph-name="nonbreakingspace" horiz-adv-x="623" 
 />
    <glyph glyph-name="guillemotleft" unicode="&#xab;" horiz-adv-x="394" 
d="M253 370h-42c-41 -58 -62 -120 -62 -185c0 -63 21 -124 62 -185h42c-31 67 -47 129 -47 184s16 117 47 186zM149 370h-42c-41 -58 -61 -120 -61 -185c0 -63 20 -124 61 -185h42c-31 67 -47 129 -47 184s16 117 47 186z" />
    <glyph glyph-name="guillemotright" unicode="&#xbb;" horiz-adv-x="394" 
d="M254 185c0 65 -20 127 -61 185h-42c31 -69 46 -131 46 -186s-15 -117 -46 -184h43c40 61 60 122 60 185zM151 185c0 65 -21 127 -62 185h-42c31 -69 47 -131 47 -186s-16 -117 -47 -184h43c41 61 61 122 61 185z" />
    <glyph glyph-name="divide" unicode="&#xf7;" horiz-adv-x="469" 
d="M267 360v63h-65v-63h65zM420 217v43h-371v-43h371zM267 54v64h-65v-64h65z" />
    <glyph glyph-name="exclam" unicode="!" horiz-adv-x="159" 
d="M105 645h-51l4 -471h44zM110 0v60h-61v-60h61z" />
    <glyph glyph-name="quotedbl" unicode="&#x22;" horiz-adv-x="213" 
d="M97 613c0 21 -8 32 -24 32s-24 -11 -24 -32c0 -7 5 -39 14 -96c1 -6 4 -9 10 -9c5 0 7 3 8 9c11 51 16 83 16 96zM172 613c0 21 -8 32 -24 32s-24 -11 -24 -32c0 -7 5 -39 14 -96c1 -6 4 -9 10 -9c5 0 7 3 8 9c11 51 16 83 16 96z" />
    <glyph glyph-name="dollar" unicode="$" horiz-adv-x="532" 
d="M482 173c0 92 -57 148 -171 168l-27 5v262c49 -3 94 -23 133 -59l32 32c-49 43 -104 66 -165 69v81h-41v-81c-112 -7 -180 -75 -180 -176c0 -48 16 -87 48 -116c29 -27 69 -44 119 -50l13 -2v-267c-59 3 -112 29 -159 76l-35 -35c54 -53 119 -82 194 -85v-99h41v99
c123 7 198 74 198 178zM243 352c-88 12 -132 53 -132 124c0 76 49 125 132 132v-256zM433 172c0 -80 -56 -128 -149 -133v261c51 -7 86 -18 106 -32c29 -19 43 -51 43 -96z" />
    <glyph glyph-name="percentarabic" unicode="&#x66a;" horiz-adv-x="441" 
d="M197 518v67l-50 15v-67zM391 645h-41l-301 -645h41zM295 41v66l-51 15v-66z" />
    <glyph glyph-name="quotesingle" unicode="'" horiz-adv-x="147" 
d="M97 613c0 21 -8 32 -24 32s-24 -11 -24 -32c0 -7 5 -39 14 -96c1 -6 4 -9 10 -9c5 0 7 3 8 9c11 51 16 83 16 96z" />
    <glyph glyph-name="parenright" unicode=")" horiz-adv-x="259" 
d="M173 72v502c0 35 -6 63 -18 85c-25 33 -45 57 -60 72l-33 -34c26 -26 42 -46 49 -59c8 -17 12 -40 12 -69v-492c0 -29 -4 -53 -12 -70c-21 -27 -37 -46 -49 -59l33 -33c31 31 51 55 60 73c12 21 18 49 18 84z" />
    <glyph glyph-name="parenleft" unicode="(" horiz-adv-x="257" 
d="M195 -53c-27 26 -43 45 -48 58c-10 19 -15 43 -15 72v492c0 29 5 52 15 71c19 27 35 47 48 60l-32 31c-31 -31 -50 -55 -59 -72c-12 -22 -18 -50 -18 -85v-502c0 -34 6 -62 18 -84c7 -13 15 -26 24 -37c6 -6 18 -18 35 -36z" />
    <glyph glyph-name="multiply" unicode="&#xd7;" horiz-adv-x="436" 
d="M386 99l-140 140l140 141l-27 28l-141 -140l-140 140l-29 -28l141 -141l-141 -140l29 -29l140 141l141 -141z" />
    <glyph glyph-name="plus" unicode="+" horiz-adv-x="469" 
d="M420 217v43h-163v163h-44v-163h-164v-43h164v-164h44v164h163z" />
    <glyph glyph-name="commaarabic" unicode="&#x60c;" horiz-adv-x="130" 
d="M99 1v185l-37 -61v-124h37z" />
    <glyph glyph-name="hyphen" unicode="-" horiz-adv-x="469" 
d="M420 217v43h-371v-43h371z" />
    <glyph glyph-name="period" unicode="." horiz-adv-x="178" 
d="M147 43c0 23 -19 42 -42 42c-25 0 -43 -19 -43 -42c0 -24 18 -43 43 -43c23 0 42 19 42 43z" />
    <glyph glyph-name="slash" unicode="/" horiz-adv-x="160" 
d="M251 645h-41l-301 -645h40z" />
    <glyph glyph-name="zeroarabic" unicode="&#x660;" horiz-adv-x="201" 
d="M135 91v90l-69 21v-90z" />
    <glyph glyph-name="onearabic" unicode="&#x661;" horiz-adv-x="179" 
d="M113 0v645h-47v-630z" />
    <glyph glyph-name="twoarabic" unicode="&#x662;" horiz-adv-x="473" 
d="M407 606v39l-249 2c-61 -2 -92 -32 -92 -90v-542l47 -15v545c0 38 17 58 51 61h243z" />
    <glyph glyph-name="threearabic" unicode="&#x663;" horiz-adv-x="546" 
d="M480 495v152h-49v-146c0 -67 -19 -100 -56 -100s-64 30 -79 89v157h-48v-146c0 -67 -19 -100 -57 -100c-37 0 -63 29 -78 88v158h-47v-632l47 -15v406c21 -33 47 -49 78 -49c45 0 77 23 94 70c19 -47 49 -70 90 -70c64 0 105 54 105 138z" />
    <glyph glyph-name="fourarabic" unicode="&#x664;" horiz-adv-x="486" 
d="M420 0l-19 42h-156c-77 0 -134 53 -134 134c0 94 45 141 136 141h78v40h-78c-82 0 -123 42 -123 125c0 41 11 72 34 94c23 20 52 30 87 30h122v39c-25 1 -65 2 -122 2c-99 0 -167 -64 -167 -165c0 -69 30 -116 89 -141c-67 -23 -101 -78 -101 -165
c0 -108 75 -176 179 -176h175z" />
    <glyph glyph-name="fivearabic" unicode="&#x665;" horiz-adv-x="493" 
d="M427 216c0 99 -60 193 -181 283c-120 -83 -180 -177 -180 -283c0 -63 16 -114 47 -153c33 -42 78 -63 133 -63c58 0 103 21 136 63c30 39 45 90 45 153zM380 216c0 -51 -10 -92 -31 -122c-23 -35 -58 -52 -103 -52c-46 0 -80 17 -103 52c-20 30 -30 71 -30 122
c0 85 44 163 133 232c89 -68 134 -145 134 -232z" />
    <glyph glyph-name="sixarabic" unicode="&#x666;" horiz-adv-x="473" 
d="M407 15v542c0 58 -31 88 -92 90l-249 -2v-39h243c34 -3 51 -23 51 -61v-545z" />
    <glyph glyph-name="sevenarabic" unicode="&#x667;" horiz-adv-x="602" 
d="M536 645h-52l-184 -599l-182 599h-52l210 -645h50z" />
    <glyph glyph-name="eightarabic" unicode="&#x668;" horiz-adv-x="602" 
d="M536 0l-210 645h-50l-210 -645h52l182 600l184 -600h52z" />
    <glyph glyph-name="ninearabic" unicode="&#x669;" horiz-adv-x="474" 
d="M408 15v424c0 59 -14 108 -41 145c-31 41 -74 61 -130 61c-114 0 -171 -72 -171 -217s57 -218 171 -218c51 0 93 18 124 53v-263zM361 428c0 -117 -41 -176 -124 -176s-125 59 -125 176c0 118 42 177 125 177s124 -59 124 -177z" />
    <glyph glyph-name="colon" unicode=":" horiz-adv-x="178" 
d="M147 321c0 23 -19 42 -42 42c-25 0 -43 -19 -43 -42c0 -25 18 -43 43 -43c23 0 42 18 42 43zM147 43c0 23 -19 42 -42 42c-25 0 -43 -19 -43 -42c0 -24 18 -43 43 -43c23 0 42 19 42 43z" />
    <glyph glyph-name="semicolonarabic" unicode="&#x61b;" horiz-adv-x="178" 
d="M123 271v126l-38 63v-189h38zM147 42c0 23 -19 43 -42 43c-25 0 -43 -20 -43 -43s18 -42 43 -42c23 0 42 19 42 42z" />
    <glyph glyph-name="greater" unicode="&#x3e;" horiz-adv-x="402" 
d="M358 223l-234 234h-69l234 -234l-234 -233h69z" />
    <glyph glyph-name="equal" unicode="=" horiz-adv-x="469" 
d="M420 286v43h-371v-43h371zM420 148v42h-371v-42h371z" />
    <glyph glyph-name="less" unicode="&#x3c;" horiz-adv-x="410" 
d="M357 -10l-234 233l234 234h-69l-234 -234l234 -233h69z" />
    <glyph glyph-name="questionarabic" unicode="&#x61f;" horiz-adv-x="397" 
d="M374 491c0 45 -15 83 -46 114c-30 31 -69 47 -116 47s-86 -15 -117 -46s-46 -69 -46 -115c0 -31 15 -71 46 -120c24 -33 48 -67 72 -101c11 -15 16 -33 16 -54v-43h47v40c0 29 -9 57 -28 83c-20 29 -41 58 -63 88c-29 45 -44 81 -44 107c0 68 50 120 117 120
c68 0 116 -55 116 -120h46zM236 0v60h-61v-60h61z" />
    <glyph glyph-name="asteriskarabic" unicode="&#x66d;" horiz-adv-x="500" 
d="M447 245l-9 20l-138 -20l-38 143h-20l-39 -143l-138 21l-9 -21l117 -93l-52 -139l17 -13l114 94l113 -94l17 15l-51 138z" />
    <glyph glyph-name="bracketright" unicode="]" horiz-adv-x="263" 
d="M175 -67v780h-134v-38h91v-705h-91v-37h134z" />
    <glyph glyph-name="backslash" unicode="\" horiz-adv-x="392" 
d="M306 -67l-258 780h-48l258 -780h48z" />
    <glyph glyph-name="bracketleft" unicode="[" horiz-adv-x="263" 
d="M222 -67v41h-87v699h87v40h-134v-780h134z" />
    <glyph glyph-name="underscore" unicode="_" horiz-adv-x="234" 
d="M247 -99v42h-259v-42h259z" />
    <glyph glyph-name="tatweelarabic" unicode="&#x640;" horiz-adv-x="162" 
d="M174 0v42h-186v-42h186z" />
    <glyph glyph-name="braceright" unicode="}" horiz-adv-x="286" 
d="M242 302v41c-49 0 -73 24 -73 72v187c0 45 -9 76 -27 92c-17 13 -49 19 -96 19v-40c33 0 54 -4 63 -12c9 -7 14 -27 14 -60v-188c0 -42 19 -72 56 -90c-37 -19 -56 -49 -56 -91v-188c0 -33 -5 -52 -14 -59s-30 -11 -63 -11v-41c47 0 80 7 97 21s26 44 26 89v188
c0 47 24 71 73 71z" />
    <glyph glyph-name="bar" unicode="|" horiz-adv-x="130" 
d="M44 -65h53v780h-53v-780z" />
    <glyph glyph-name="braceleft" unicode="{" horiz-adv-x="286" 
d="M242 -67v41c-35 0 -57 4 -66 11s-13 26 -13 59v188c0 42 -19 72 -56 91c37 18 56 48 56 90v188c0 33 4 53 13 60c9 8 31 12 66 12v40c-48 0 -80 -6 -96 -19c-19 -16 -29 -47 -29 -92v-187c0 -48 -24 -72 -71 -72v-41c47 0 71 -24 71 -71v-188c0 -45 10 -75 29 -90
c16 -13 48 -20 96 -20z" />
    <glyph glyph-name="zero" unicode="0" horiz-adv-x="201" 
d="M135 91v90l-69 21v-90z" />
    <glyph glyph-name="one" unicode="1" horiz-adv-x="179" 
d="M113 0v645h-47v-630z" />
    <glyph glyph-name="two" unicode="2" horiz-adv-x="473" 
d="M407 606v39l-249 2c-61 -2 -92 -32 -92 -90v-542l47 -15v545c0 38 17 58 51 61h243z" />
    <glyph glyph-name="three" unicode="3" horiz-adv-x="546" 
d="M480 495v152h-49v-146c0 -67 -19 -100 -56 -100s-64 30 -79 89v157h-48v-146c0 -67 -19 -100 -57 -100c-37 0 -63 29 -78 88v158h-47v-632l47 -15v406c21 -33 47 -49 78 -49c45 0 77 23 94 70c19 -47 49 -70 90 -70c64 0 105 54 105 138z" />
    <glyph glyph-name="four" unicode="4" horiz-adv-x="486" 
d="M420 0l-19 42h-156c-77 0 -134 53 -134 134c0 94 45 141 136 141h78v40h-78c-82 0 -123 42 -123 125c0 41 11 72 34 94c23 20 52 30 87 30h122v39c-25 1 -65 2 -122 2c-99 0 -167 -64 -167 -165c0 -69 30 -116 89 -141c-67 -23 -101 -78 -101 -165
c0 -108 75 -176 179 -176h175z" />
    <glyph glyph-name="five" unicode="5" horiz-adv-x="493" 
d="M427 216c0 99 -60 193 -181 283c-120 -83 -180 -177 -180 -283c0 -63 16 -114 47 -153c33 -42 78 -63 133 -63c58 0 103 21 136 63c30 39 45 90 45 153zM380 216c0 -51 -10 -92 -31 -122c-23 -35 -58 -52 -103 -52c-46 0 -80 17 -103 52c-20 30 -30 71 -30 122
c0 85 44 163 133 232c89 -68 134 -145 134 -232z" />
    <glyph glyph-name="six" unicode="6" horiz-adv-x="473" 
d="M407 15v542c0 58 -31 88 -92 90l-249 -2v-39h243c34 -3 51 -23 51 -61v-545z" />
    <glyph glyph-name="seven" unicode="7" horiz-adv-x="602" 
d="M536 645h-52l-184 -599l-182 599h-52l210 -645h50z" />
    <glyph glyph-name="eight" unicode="8" horiz-adv-x="602" 
d="M536 0l-210 645h-50l-210 -645h52l182 600l184 -600h52z" />
    <glyph glyph-name="nine" unicode="9" horiz-adv-x="474" 
d="M408 15v424c0 59 -14 108 -41 145c-31 41 -74 61 -130 61c-114 0 -171 -72 -171 -217s57 -218 171 -218c51 0 93 18 124 53v-263zM361 428c0 -117 -41 -176 -124 -176s-125 59 -125 176c0 118 42 177 125 177s124 -59 124 -177z" />
    <glyph glyph-name="quotedblleft" unicode="&#x201c;" horiz-adv-x="213" 
d="M123 539c0 -21 8 -32 24 -32s24 11 24 32c0 7 -5 39 -14 96c-1 6 -4 9 -10 9c-5 0 -7 -3 -8 -9c-11 -51 -16 -83 -16 -96zM48 539c0 -21 8 -32 24 -32s24 11 24 32c0 7 -5 39 -14 96c-1 6 -4 9 -10 9c-5 0 -7 -3 -8 -9c-11 -51 -16 -83 -16 -96z" />
    <glyph glyph-name="quotedblright" unicode="&#x201d;" horiz-adv-x="213" 
d="M97 613c0 21 -8 32 -24 32s-24 -11 -24 -32c0 -7 5 -39 14 -96c1 -6 4 -9 10 -9c5 0 7 3 8 9c11 51 16 83 16 96zM172 613c0 21 -8 32 -24 32s-24 -11 -24 -32c0 -7 5 -39 14 -96c1 -6 4 -9 10 -9c5 0 7 3 8 9c11 51 16 83 16 96z" />
    <glyph glyph-name="hyphenminus" unicode="&#x2010;" horiz-adv-x="454" 
d="M24 192h421v39h-421v-39z" />
    <glyph glyph-name="delete" unicode="&#x2421;" horiz-adv-x="709" 
d="M674 57v31h-127v229h-36v-260h163zM479 57v31h-159v88h143v31h-143v79h153v31h-189v-260h195zM253 189c0 71 -26 112 -79 124c-10 3 -25 4 -46 4h-90v-260h95c15 0 29 2 41 5c53 13 79 55 79 127zM218 189c0 -37 -9 -65 -26 -83c-13 -12 -34 -18 -63 -18h-56v198h55
c20 0 35 -2 44 -5c31 -12 46 -43 46 -92z" />
    <glyph glyph-name="nbspace" unicode="&#xa0;" horiz-adv-x="623" 
 />
    <glyph glyph-name="ornaterightparenthesis" unicode="&#xfd3f;" horiz-adv-x="259" 
d="M173 72v502c0 35 -6 63 -18 85c-25 33 -45 57 -60 72l-33 -34c26 -26 42 -46 49 -59c8 -17 12 -40 12 -69v-492c0 -29 -4 -53 -12 -70c-21 -27 -37 -46 -49 -59l33 -33c31 31 51 55 60 73c12 21 18 49 18 84z" />
    <glyph glyph-name="ornateleftparenthesis" unicode="&#xfd3e;" horiz-adv-x="257" 
d="M195 -53c-27 26 -43 45 -48 58c-10 19 -15 43 -15 72v492c0 29 5 52 15 71c19 27 35 47 48 60l-32 31c-31 -31 -50 -55 -59 -72c-12 -22 -18 -50 -18 -85v-502c0 -34 6 -62 18 -84c7 -13 15 -26 24 -37c6 -6 18 -18 35 -36z" />
    <glyph glyph-name="righttoleft" unicode="&#x200f;" horiz-adv-x="20" 
d="M20 0v722h-96l36 36l-14 14l-60 -61l60 -61l14 14l-38 38h78v-702h20z" />
    <glyph glyph-name="lefttoright" unicode="&#x200e;" horiz-adv-x="20" 
d="M134 711l-60 61l-14 -14l36 -36h-96v-722h20v702h78l-38 -38l14 -14z" />
    <glyph glyph-name="zerojoin" unicode="&#x200d;" horiz-adv-x="20" 
d="M71 663l-47 48l47 47l-14 14l-47 -48l-47 48l-14 -14l48 -47l-48 -48l14 -13l37 37v-687h20v687l37 -37z" />
    <glyph glyph-name="zeronojoin" unicode="&#x200c;" horiz-adv-x="20" 
d="M20 0v722h-20v-722h20z" />
    <glyph glyph-name="extendedarabicindicdigitnine" unicode="&#x6f9;" horiz-adv-x="474" 
d="M408 15v424c0 59 -14 108 -41 145c-31 41 -74 61 -130 61c-114 0 -171 -72 -171 -217s57 -218 171 -218c51 0 93 18 124 53v-263zM361 428c0 -117 -41 -176 -124 -176s-125 59 -125 176c0 118 42 177 125 177s124 -59 124 -177z" />
    <glyph glyph-name="extendedarabicindicdigiteight" unicode="&#x6f8;" horiz-adv-x="602" 
d="M536 0l-210 645h-50l-210 -645h52l182 600l184 -600h52z" />
    <glyph glyph-name="extendedarabicindicdigitseven" unicode="&#x6f7;" horiz-adv-x="602" 
d="M536 645h-52l-184 -599l-182 599h-52l210 -645h50z" />
    <glyph glyph-name="extendedarabicindicdigitsix" unicode="&#x6f6;" horiz-adv-x="473" 
d="M407 15v542c0 58 -31 88 -92 90l-249 -2v-39h243c34 -3 51 -23 51 -61v-545z" />
    <glyph glyph-name="extendedarabicindicdigitfive" unicode="&#x6f5;" horiz-adv-x="493" 
d="M427 216c0 99 -60 193 -181 283c-120 -83 -180 -177 -180 -283c0 -63 16 -114 47 -153c33 -42 78 -63 133 -63c58 0 103 21 136 63c30 39 45 90 45 153zM380 216c0 -51 -10 -92 -31 -122c-23 -35 -58 -52 -103 -52c-46 0 -80 17 -103 52c-20 30 -30 71 -30 122
c0 85 44 163 133 232c89 -68 134 -145 134 -232z" />
    <glyph glyph-name="extendedarabicindicdigitfour" unicode="&#x6f4;" horiz-adv-x="486" 
d="M420 0l-19 42h-156c-77 0 -134 53 -134 134c0 94 45 141 136 141h78v40h-78c-82 0 -123 42 -123 125c0 41 11 72 34 94c23 20 52 30 87 30h122v39c-25 1 -65 2 -122 2c-99 0 -167 -64 -167 -165c0 -69 30 -116 89 -141c-67 -23 -101 -78 -101 -165
c0 -108 75 -176 179 -176h175z" />
    <glyph glyph-name="extendedarabicindicdigitthree" unicode="&#x6f3;" horiz-adv-x="546" 
d="M480 495v152h-49v-146c0 -67 -19 -100 -56 -100s-64 30 -79 89v157h-48v-146c0 -67 -19 -100 -57 -100c-37 0 -63 29 -78 88v158h-47v-632l47 -15v406c21 -33 47 -49 78 -49c45 0 77 23 94 70c19 -47 49 -70 90 -70c64 0 105 54 105 138z" />
    <glyph glyph-name="extendedarabicindicdigittwo" unicode="&#x6f2;" horiz-adv-x="473" 
d="M407 606v39l-249 2c-61 -2 -92 -32 -92 -90v-542l47 -15v545c0 38 17 58 51 61h243z" />
    <glyph glyph-name="extendedarabicindicdigitone" unicode="&#x6f1;" horiz-adv-x="179" 
d="M113 0v645h-47v-630z" />
    <glyph glyph-name="extendedarabicindicdigitzero" unicode="&#x6f0;" horiz-adv-x="201" 
d="M135 91v90l-69 21v-90z" />
    <glyph glyph-name="superscriptalef" unicode="&#x670;" 
d="M23 714h44v204h-44v-204z" />
    <glyph glyph-name="maddaabove" unicode="&#x653;" 
d="M324 706l-25 25c-21 -19 -39 -29 -54 -29c-13 0 -31 7 -54 20c-22 13 -42 20 -60 20c-24 0 -50 -14 -79 -42l26 -24c20 19 38 29 53 29c13 0 31 -7 54 -21c23 -13 43 -20 60 -20c25 0 51 14 79 42z" />
    <glyph glyph-name="hamzaabove" unicode="&#x654;" 
d="M249 664v29h-87v11c0 28 11 42 32 42c11 0 20 -5 29 -14l18 24c-13 12 -27 18 -42 18c-45 0 -67 -24 -67 -72v-9h-26l-21 -29h164z" />
    <glyph glyph-name="hamzabelow" unicode="&#x655;" 
d="M236 -193v28h-88v11c0 29 11 43 32 43c11 0 21 -5 30 -15l17 24c-12 12 -26 18 -42 18c-44 0 -66 -23 -66 -70v-11h-26l-21 -28h164z" />
    <glyph glyph-name="zerowidthnobreakspace" unicode="&#xfeff;" 
 />
    <glyph glyph-name="_246" 
 />
    <glyph glyph-name="at" unicode="*" horiz-adv-x="391" 
d="M342 96l-111 62l111 62l-20 34l-109 -66l3 128h-41l3 -128l-109 66l-20 -34l111 -62l-111 -62l20 -34l109 66l-3 -128h41l-3 128l109 -66z" />
  </font>
</defs>
</svg>
